<svg xmlns="http://www.w3.org/2000/svg" viewBox="0 0 4680 3120"><defs><style>.cls-1,.cls-14{fill:#fff;}.cls-1{opacity:0;}.cls-2{fill:#e5e5e5;}.cls-3{fill:#ff8376;}.cls-4{fill:#fff2ee;}.cls-5{fill:#ffc4b0;}.cls-6{fill:#dfebed;}.cls-7{fill:#1f1f21;}.cls-8{fill:#7c7c7c;}.cls-9{fill:#4f4f4f;}.cls-10{fill:#636363;}.cls-11{fill:#56565b;}.cls-12{fill:#4c4c51;}.cls-13{fill:#1d2120;}.cls-15{fill:#181819;}.cls-16{fill:#9e9e9e;}.cls-17{fill:#555559;}.cls-18{fill:#fffcee;}.cls-19{fill:#fff4d2;}.cls-20{fill:#e89e34;}.cls-21{fill:#f4cc90;}.cls-22{fill:#ffe499;}.cls-23{fill:#e56c6c;}.cls-24{fill:#fff2f0;}.cls-25{fill:#34ad96;}.cls-26{opacity:0.6;}.cls-27{fill:#0b6861;}.cls-28{fill:#085951;}.cls-29{fill:#e28f56;}.cls-30{fill:#d67f43;}.cls-31{fill:#bc5b26;}.cls-32{fill:#93401f;}.cls-33{fill:#82351a;}.cls-34{fill:#632d18;}.cls-35{fill:#064c45;}.cls-36{fill:#066;}.cls-37{fill:#4ca5a0;}.cls-38{opacity:0.29;}.cls-39{fill:#070707;}.cls-40{fill:#fff9dc;}.cls-41{fill:#2a2844;}.cls-42{fill:#ffd95f;}.cls-43{fill:#e89931;}.cls-44{opacity:0.74;}.cls-45{fill:#d13030;}.cls-46{fill:#b76935;}.cls-47{opacity:0.91;}.cls-48{fill:#cc824a;}.cls-49{fill:#adadad;}.cls-50{opacity:0.35;}.cls-51{fill:#efefef;}.cls-52{fill:#b7b7b7;}.cls-53{fill:#999;}</style></defs><title>03</title><g id="_03" data-name="03"><rect id="_03-2" data-name="03" class="cls-1" width="4680" height="3120"/><path class="cls-2" d="M4156.52,773.67l-71.46-12.6-92.35-16.29-108.85-19.19-121-21.34-128.7-22.69-132-23.29-131-23.11L3245.54,613l-115.78-20.42-101.6-17.91-83-14.65-60.07-10.59c-12.16-2.15-25.78-3.06-38.11-1.42a66.64,66.64,0,0,0-21.61,6.52l-.5.25-2.37,1.21a16.21,16.21,0,0,0-15.36,15.94v784.4a16.08,16.08,0,0,0,12.38,15.48l1344,336.27V774.9Z"/><path class="cls-3" d="M2946.47,649.61c-3.15,1.64-11.34,5.82-11.7,9.26-.17,1.66,2.62,5.06,3.47,6.46,2.59,4.25,5.45,8.34,7.85,12.71,3.4,6.21,3.35,9.87,3.11,16.57-.22,6.11,0,12.27,0,18.38v618.36a13.82,13.82,0,0,0,10.37,13.39l.22.06,19.54,5,47.84,12.35,71.47,18.46,90.43,23.36,104.71,27,114.33,29.53,119.27,30.81,119.53,30.88L3762,1552l106,27.4,92.29,23.83,73.86,19.08,28.56,7.38c11.55,3,23.22,3.55,27.23,17a4.18,4.18,0,0,0,.53,1.29,3.18,3.18,0,0,0,1.1.89,13.3,13.3,0,0,0,10,.79,39.26,39.26,0,0,0,9.25-4.35c7-4.08,15.28-7.68,15.28-17.13V862.11a13.82,13.82,0,0,0-11.36-13.6L4100.92,846l-38.71-7L4002.34,828,3925,814l-91.2-16.61-101.35-18.45-107.83-19.63L3514,739.11l-109.77-20L3299,700l-97-17.67-85.12-15.49-69.56-12.67L2996.93,645c-10.19-1.86-21.61-2.65-31.94-1.23a54.61,54.61,0,0,0-18.1,5.64Z"/><path class="cls-4" d="M2931.61,664.44v678.49a13.83,13.83,0,0,0,10.37,13.39l1149.28,296.87a13.84,13.84,0,0,0,17.29-13.4V873.69a13.82,13.82,0,0,0-11.36-13.6L2947.92,650.84A13.83,13.83,0,0,0,2931.61,664.44Z"/><path class="cls-5" d="M2968.23,697.23V1322.5a12.74,12.74,0,0,0,9.56,12.34l1059.13,273.59a12.75,12.75,0,0,0,15.93-12.35v-706a12.74,12.74,0,0,0-10.46-12.54L2983.26,684.69A12.75,12.75,0,0,0,2968.23,697.23Z"/><ellipse class="cls-3" cx="3171.53" cy="1007.53" rx="163.85" ry="203.75"/><path class="cls-4" d="M3171.53,1010.53a3,3,0,0,1-3-3V803.78a3,3,0,0,1,6,0v203.75A3,3,0,0,1,3171.53,1010.53Z"/><path class="cls-4" d="M3246.26,1191.83a3,3,0,0,1-2.77-1.86l-74.73-181.3a3,3,0,1,1,5.54-2.29l74.74,181.3a3,3,0,0,1-1.63,3.92A3.14,3.14,0,0,1,3246.26,1191.83Z"/><path class="cls-4" d="M3171.53,1010.53a3,3,0,0,1-2.08-.85l-129.38-125a3,3,0,0,1,4.17-4.31l129.38,125a3,3,0,0,1-2.09,5.16Z"/><path class="cls-4" d="M3171.53,1010.53a3,3,0,0,1-2.48-1.31L3062.93,854a3,3,0,0,1,5-3.38L3174,1005.83a3,3,0,0,1-.79,4.17A2.91,2.91,0,0,1,3171.53,1010.53Z"/><ellipse class="cls-3" cx="3605.54" cy="1117.7" rx="171.92" ry="213.78"/><path class="cls-4" d="M3605.54,1120.7a3,3,0,0,1-3-3V903.92a3,3,0,0,1,6,0V1117.7A3,3,0,0,1,3605.54,1120.7Z"/><path class="cls-4" d="M3684,1310.93a3,3,0,0,1-2.78-1.86l-78.41-190.23a3,3,0,0,1,5.55-2.28l78.41,190.23a3,3,0,0,1-1.63,3.91A2.9,2.9,0,0,1,3684,1310.93Z"/><path class="cls-4" d="M3605.54,1120.7a3,3,0,0,1-2.08-.84L3467.71,988.68a3,3,0,0,1,4.17-4.31l135.75,131.17a3,3,0,0,1-2.09,5.16Z"/><path class="cls-4" d="M3605.55,1120.7a3,3,0,0,1-2.48-1.31L3491.72,956.53a3,3,0,0,1,5-3.39L3608,1116a3,3,0,0,1-2.47,4.69Z"/><path class="cls-4" d="M4006.33,1067.62a2.62,2.62,0,0,1-.55,0l-195-35.74a3,3,0,0,1,1.08-5.9l195,35.74a3,3,0,0,1-.54,5.95Z"/><path class="cls-4" d="M4002.12,1111.5a2.86,2.86,0,0,1-.58-.06l-190.82-37.69a3,3,0,0,1,1.16-5.89l190.82,37.69a3,3,0,0,1-.58,6Z"/><path class="cls-4" d="M3999.72,1155.12a3.26,3.26,0,0,1-.62-.06l-188.41-39.4a3,3,0,1,1,1.23-5.87l188.41,39.39a3,3,0,0,1-.61,5.94Z"/><path class="cls-4" d="M3993.2,1239a2.47,2.47,0,0,1-.54,0l-195-35.73a3,3,0,0,1,1.08-5.91l195,35.74a3,3,0,0,1-.54,6Z"/><path class="cls-4" d="M3989,1282.84a2.93,2.93,0,0,1-.58-.06l-190.81-37.69a3,3,0,1,1,1.16-5.89l190.81,37.7a3,3,0,0,1-.58,5.94Z"/><path class="cls-4" d="M3986.59,1326.46a3.34,3.34,0,0,1-.62-.06L3797.56,1287a3,3,0,1,1,1.23-5.87l188.41,39.4a3,3,0,0,1-.61,5.93Z"/><path class="cls-2" d="M2124.64,1611c-3.75-2.83,0-36.27,0-40.71V940.36c0-7,2.31-18.59.08-25.14-1.75-5.14-8.38-7.38-8.16-13.76.1-2.9,1.72-5.5,3.45-7.83a64.18,64.18,0,0,1,21.1-18.18c-1-.07-2-.23-3-.23V393.77c-180.16,57.48-361.39,111.51-542.3,166.58-84.87,25.84-169.53,52.31-254.19,78.82-25.09,7.86-270.62,72.29-270.46,84.71,0,3.68.09,7.37.14,11.06q1,77.84,2,155.67l2.64,207.92q1.49,117.75,3,235.51l3,238.45q1.38,108.38,2.75,216.76l2.16,170.41q.38,30.06.76,60.12c.11,8.75-3.88,40.21,2.17,46.18,1.81,1.79,4.24,2.78,6.58,3.79,117.22,50.41,240.06,86.14,362.65,120.79,122.1,34.51,243.29,71.56,364.64,108.62l219.73,67.11L2262,2433l205.5,62.75L2648,2550.91l143.69,43.88,94.94,29,34.31,10.48a7.81,7.81,0,0,0,6.23-.73L3906.51,2062c-14.57,8.5-90.54-21.78-106-25.48L2950.33,1832l-471.22-113.34C2367.12,1691.75,2216.38,1680.08,2124.64,1611Z"/><path class="cls-6" d="M2382.48,2614.47l-149.31-44-187.61-55.26L1832,2452.33l-227.12-66.9-228.34-67.26q-54.18-16-108.36-31.87L943.62,2398.63q47.4,13.9,94.8,27.89l214.27,63.11,213.13,62.78,200.39,59,176,51.86,140.12,41.27,92.59,27.27,33.46,9.86a10.39,10.39,0,0,0,6.2-.1l321.59-111.29Z"/><path class="cls-2" d="M2220.28,1641l1738,400.18,137.6-86L2359.72,1555.41l-5.38,2.47L2320,342.11l-35.19,9.31-105.67,36.13,35.48,1256.06Z"/><path class="cls-7" d="M1566.36,1900l695-303.84a13,13,0,0,0,6.68-17.05l-15.34-35.51a12.89,12.89,0,0,0-16.94-6.71l-695,303.84a13,13,0,0,0-6.68,17l15.34,35.51A12.89,12.89,0,0,0,1566.36,1900Z"/><path class="cls-7" d="M3659,1869.72a47.73,47.73,0,0,0,13-16c.85-1.75,0-6.08,0-8v-38c0-11,3.22-26.29-7.57-33.2-4.93-3.16-11.1-3.71-16.93-3.27-11.79.9-23,5.46-33.91,10-4.55,1.87-9.44,4.71-14.21,5.85-3.29.79-7,.59-10.47.87-20.35,1.69-40.78,2.06-61.2,2.44-24.53.44-49.44,2.24-73.95,1.35-13.66-.5-29.29-8-42.61-11.92L3323,1753.44l-193.17-57.67L2933.6,1637.2l-176.13-52.58-133-39.7L2557.77,1525c-1.06-.32-2.55-1.1-3.67-1.1a5.89,5.89,0,0,0-4,.24l-6,2.62-44.82,19.47-82.53,35.85-113,49.1-136.43,59.26-152.62,66.29L1853,1827l-163.5,71-158.19,68.71L1385.59,2030l-126,54.75-53.42,23.2-23.91,10.39c-16.55,7.17-40.85,3.11-58.26.18-5.21-.88-10.37-2-15.6-2.78-4.77-.71-9.58-1.22-14.39-1.59-2.63-.2-10.46-2.06-12.39-.07a5.42,5.42,0,0,0-1.14,2.16,18.28,18.28,0,0,0-.8,6.73v45.73a53.62,53.62,0,0,0,0,6.08c1.07,8.79,25.72,12.69,32.16,14.73q22,7,44,13.73c33.2,10.19,66.56,21.45,100.23,29.91l112.15,33.71,128.34,38.58,138.87,41.73,143.72,43.2,142.93,43,136.47,41,124.36,37.38,106.58,32,83.14,25,54.05,16.25,19.29,5.79a5.82,5.82,0,0,0,4.68-.57l18.59-11.07,51.94-30.92,79.54-47.34L2702,2440.5l117.47-69.92,127.8-76.07,132.38-78.81,131.22-78.11,124.3-74,111.62-66.44,93.21-55.48,69-41.09c13-7.75,26.22-15.28,39.1-23.27A101.1,101.1,0,0,0,3659,1869.72Z"/><path class="cls-8" d="M1083.82,2113.81a5.93,5.93,0,0,0,.76,11.09l1378.48,398.64a5.85,5.85,0,0,0,4.67-.63L3664.51,1793.5a6,6,0,0,0,2.83-5.18l-.14-6.83h0l-.07-3.64a5.9,5.9,0,0,0-4.27-5.56l-40.34-11.59-1117.24-282Z"/><path class="cls-7" d="M1811.51,1987.67,1950.44,1924,2079,1865.11l127.27-58.31,121.23-55.54,127.31-58.33,125.38-57.44,13.83-6.34,31.47-14.42,34.13-15.63c7.23-3.32,14.71-6.33,21.79-10,2.5-1.3,2.14-3.25,1.49-5.83a1.07,1.07,0,0,0-.28-.55,1,1,0,0,0-.69-.19,111.72,111.72,0,0,0-17.63.92c-3.82.49-8.43-1.34-12.2-2.18l-25.68-5.71q-14.5-3.21-29-6.44a4.73,4.73,0,0,0-3,.32l-96.63,44.27-125.38,57.44-127.31,58.33L2123.89,1785l-127.27,58.31-128.56,58.91-138.94,63.65-149,68.25-3,1.36-16.6,7.61-27.46,12.58-34.06,15.6-36.4,16.68-34.49,15.8-28.3,13-10.51,4.81-4.11,1.89a15.36,15.36,0,0,1-2.35,1.14c-2.47.56-4.82-1.23-7.47-.07a5.6,5.6,0,0,0-2.58,2.35,11.3,11.3,0,0,0-.92,5.58,1.58,1.58,0,0,0,1.16,1.7c8.36,3.56,17.89,5,26.67,7.29l29.12,7.49,19.62,5,214-98.07Z"/><path class="cls-7" d="M1939.87,2021.58l136.46-64.31,126.27-59.51,125-58.91,119.07-56.11,125-58.93,123.15-58,7.1-3.34,18-8.48,23.93-11.28,24.92-11.75,21-9.87,12-5.68c.58-.27.93-.35,1.15-.93.51-1.33,0-3.81,0-5.27,0,.25-12,.31-13.11.3-2.23,0-4.46-.09-6.69-.17-1.54-.06-3,.33-4.55.07-6.16-1-12.28-2.73-18.38-4.08l-37.13-8.25-20.37-4.52-.33-.07-104.26,47.76-125.38,57.45L2345.39,1756l-121.23,55.54-127.26,58.31-128.57,58.9-138.94,63.65-149,68.26-.19.08-2.2,1-4.5,2.06-6.56,3-8.4,3.84-10,4.57-11.32,5.2-12.44,5.69-13.31,6.1-14,6.39-14.34,6.57-14.5,6.64-14.41,6.61-14.1,6.46-13.54,6.2-12.74,5.84-11.71,5.36-10.44,4.78-8.92,4.09-2,.9c-.31.15-.62.3-.94.43a8.7,8.7,0,0,1-2.79.48c-1.1.1-13.15.37-13.15.18,0,1-.13,1.89-.12,2.84a2.29,2.29,0,0,0,1,2.06,5.91,5.91,0,0,0,1.73.64c2.84.34,5.8,1.49,8.57,2.2l8.74,2.24,17.28,4.44,3,.76,13.37,3.44,13.76,3.54,13.48,3.47,12.53,3.23,10.91,2.8,8.62,2.22,5.67,1.46,2,.52,209-98.47Z"/><path class="cls-7" d="M2066.09,2054.92l134.83-64.74,124.78-59.9,123.52-59.3,117.66-56.49,123.56-59.32,121.68-58.42,6.59-3.17,16.95-8.13,23.1-11.09,25.06-12,22.83-11,16.39-7.87,4.48-2.15c.55-.27,1.05-.41,1.27-.94.33-.82,0-2.5,0-3.38,0-1.1-1.64-1.45-2.53-1.63a12.43,12.43,0,0,0-2.4-.41c-.66,0-1.35.18-2,.22-1.86.11-3.71.19-5.57.21a60.88,60.88,0,0,1-10.79-.77c-3.79-.65-7.52-.57-11.23-1.36l-10.32-2.22-20.89-4.48-31.16-6.69-3.84-.82-112,52.29-123.88,57.84-125.79,58.73-119.78,55.92-125.75,58.71-127,59.31L1956.52,2026l-147.18,68.72-10.69,5-40.44,18.89-56,26.13-55.76,26-22.89,10.68-9.34,4.36a13,13,0,0,1-5,1.62c-1.82.11-11.28-1.18-12.28.41a7.91,7.91,0,0,0-.88,2c-1.31,4.42,1.76,4.78,5,5.59l7.63,1.91,22.65,5.65,54.61,13.63,28.53,7.12,207-99.35Z"/><path class="cls-7" d="M2952,1639.21l-126.48,61.09-121.21,58.54-123.09,59.45-117.2,56.6-123,59.43-124.3,60-134.32,64.87-144,69.56-1.8.87-14.82,7.16-26.37,12.73-33.73,16.29-36.94,17.84-36,17.38L1757.9,2216l-12.2,5.89-5.06,2.44c-.75.36-1.48.78-2.25,1.09-1.76.71-3.14,0-5-.48a6.39,6.39,0,0,0-2-.3,6.18,6.18,0,0,0-2.74,1.14c-1.54.95-.76,4.42.64,5a9.31,9.31,0,0,0,1.64.39l5,1.19,28.53,6.72,36.74,8.66,31.74,7.49,13.52,3.18L2048.88,2158l141.49-70.23,132-65.49,122.12-60.61,120.88-60,115.14-57.15,120.92-60,119.09-59.1,5.39-2.68,14.39-7.14,20.47-10.16,23.65-11.74,24-11.89,21.34-10.59,15.83-7.86c1.82-.9,3.84-1.67,5.58-2.71,1.07-.64,1.3-1.9,1.45-3,.11-.83.14-2.2-.67-2.73-1-.63-2.77.56-3.72.85a46.1,46.1,0,0,1-11.37,1.85,2.92,2.92,0,0,1-2.35-.62,4.41,4.41,0,0,0-3.21-1.8l-4-.8-8.58-1.73-18.35-3.68-33.62-6.76Z"/><path class="cls-9" d="M1375.76,2121.43a4.91,4.91,0,0,0,.86,9.26l69.68,17.93,214-98.06L1578,2028.8Z"/><path class="cls-9" d="M1464.73,2153.09l-.33.19,118,30.36,209-98.47-113.14-29.89Z"/><path class="cls-9" d="M1594.46,2188.62l-.33.19,118.22,29.51,207-99.36-112.18-29.63Z"/><path class="cls-10" d="M1726.06,2224.89a3.62,3.62,0,0,0-.33.2L1844.32,2253l202.35-100.43-110.5-29.19Z"/><polygon class="cls-10" points="1726.92 1960.55 1577.95 2028.8 1660.34 2050.56 1809.31 1982.31 1726.92 1960.55"/><polygon class="cls-10" points="1827.19 1987.03 1678.22 2055.28 1791.36 2085.16 1937.67 2016.21 1827.19 1987.03"/><polygon class="cls-10" points="1954.32 2020.61 1807.13 2089.33 1919.31 2118.96 2063.88 2049.55 1954.32 2020.61"/><polygon class="cls-9" points="1865.85 1896.89 1726.92 1960.55 1809.31 1982.31 1948.24 1918.65 1865.85 1896.89"/><polygon class="cls-9" points="1966.12 1923.38 1827.19 1987.03 1937.67 2016.21 2074.12 1951.91 1966.12 1923.38"/><polygon class="cls-9" points="2091.59 1956.52 1954.32 2020.61 2063.88 2049.55 2198.72 1984.82 2091.59 1956.52"/><polygon class="cls-10" points="2076.81 1859.75 1994.42 1837.99 1865.85 1896.89 1948.24 1918.65 2076.81 1859.75"/><polygon class="cls-10" points="2094.69 1864.47 1966.12 1923.38 2074.12 1951.91 2200.4 1892.4 2094.69 1864.47"/><polygon class="cls-10" points="2218.62 1897.21 2091.59 1956.52 2198.72 1984.82 2323.5 1924.91 2218.62 1897.21"/><polygon class="cls-9" points="2121.69 1779.68 1994.42 1837.99 2076.81 1859.75 2204.08 1801.44 2121.69 1779.68"/><polygon class="cls-9" points="2221.96 1806.16 2094.69 1864.47 2200.4 1892.4 2325.4 1833.49 2221.96 1806.16"/><polygon class="cls-9" points="2218.62 1897.21 2323.5 1924.91 2447.02 1865.61 2344.37 1838.5 2218.62 1897.21"/><polygon class="cls-10" points="2242.92 1724.14 2121.69 1779.68 2204.08 1801.44 2325.3 1745.9 2242.92 1724.14"/><polygon class="cls-10" points="2444.46 1777.37 2343.19 1750.62 2221.96 1806.16 2325.4 1833.49 2444.46 1777.37"/><polygon class="cls-10" points="2464.15 1782.57 2344.37 1838.5 2447.02 1865.61 2564.67 1809.13 2464.15 1782.57"/><polygon class="cls-9" points="2452.62 1687.57 2370.23 1665.81 2242.92 1724.14 2325.3 1745.9 2452.62 1687.57"/><polygon class="cls-9" points="2470.5 1692.29 2343.19 1750.62 2444.46 1777.37 2569.51 1718.44 2470.5 1692.29"/><polygon class="cls-9" points="2464.15 1782.57 2564.67 1809.13 2688.23 1749.81 2589.94 1723.84 2464.15 1782.57"/><polygon class="cls-9" points="2702.14 1753.48 2579.06 1812.93 2461.85 1869.53 2338.81 1928.96 2214.51 1988.99 2080.19 2053.86 1936.17 2123.42 2046.67 2152.61 2188.16 2082.38 2320.12 2016.88 2442.23 1956.28 2563.11 1896.28 2678.25 1839.13 2799.18 1779.11 2702.14 1753.48"/><polygon class="cls-10" points="2578 1630.13 2495.61 1608.36 2370.23 1665.81 2452.62 1687.57 2578 1630.13"/><polygon class="cls-10" points="2569.51 1718.44 2692.65 1660.41 2595.88 1634.85 2470.5 1692.29 2569.51 1718.44"/><polygon class="cls-10" points="2713.82 1666 2589.94 1723.84 2688.23 1749.81 2809.91 1691.39 2713.82 1666"/><path class="cls-9" d="M2595.22,1563.78a4.74,4.74,0,0,0-3,.32l-96.62,44.26,82.39,21.77,103.15-47.27Z"/><polygon class="cls-9" points="2800.81 1609.44 2700.14 1587.08 2595.88 1634.85 2692.65 1660.41 2800.81 1609.44"/><polygon class="cls-9" points="2926.64 1635.35 2825.81 1613.72 2713.82 1666 2809.91 1691.39 2926.64 1635.35"/><polygon class="cls-11" points="2949.84 1633.85 2823.36 1694.94 2702.14 1753.48 2799.18 1779.11 2918.26 1720.01 3050.93 1654.15 2949.84 1633.85"/><path class="cls-7" d="M1809,1896.72,2278.27,1678a1.9,1.9,0,0,0-.24-3.53l-68.24-20.94a3.13,3.13,0,0,0-2.17.13l-478.09,210a3.4,3.4,0,0,0,.22,6.27l77.87,26.85A1.88,1.88,0,0,0,1809,1896.72Z"/><path class="cls-12" d="M1809,1889.62l469.25-218.68a1.9,1.9,0,0,0-.24-3.53l-68.24-20.94a3.13,3.13,0,0,0-2.17.13l-478.09,210a3.4,3.4,0,0,0,.22,6.27l77.87,26.85A1.88,1.88,0,0,0,1809,1889.62Z"/><path class="cls-13" d="M1808.23,1890.79a3,3,0,0,1-.94-.15l-77.87-26.85a4.4,4.4,0,0,1-.29-8.13l478.09-210a4.17,4.17,0,0,1,2.87-.16l68.23,20.94a2.89,2.89,0,0,1,.37,5.38l-469.25,218.68A2.88,2.88,0,0,1,1808.23,1890.79Zm400.65-243.45a2.18,2.18,0,0,0-.86.18l-478.08,210a2.32,2.32,0,0,0-1.38,2.29,2.27,2.27,0,0,0,1.52,2.12l77.86,26.85a.86.86,0,0,0,.65,0L2277.85,1670a.88.88,0,0,0,.51-.87.87.87,0,0,0-.62-.79l-68.24-20.94A2.16,2.16,0,0,0,2208.88,1647.34Z"/><path class="cls-10" d="M3182.66,1976.45h0a3.62,3.62,0,0,0-2.61-3.4l-12.27-3.52-369.48-93.28a1.62,1.62,0,0,0-1.16.14L2371.21,2102a1.64,1.64,0,0,0,.31,3l410.07,118.59a1.92,1.92,0,0,0,1.55-.21l398.62-243a1.94,1.94,0,0,0,.94-1.72Z"/><path class="cls-14" d="M2484.51,424.78,1013,924.82a5.93,5.93,0,0,0-4,5.56l-7.8,1146.33a5.88,5.88,0,0,0,8.08,5.52l52.17-21.25L2482,1426.19a5.91,5.91,0,0,0,3.49-5.36l6.74-990.41A5.88,5.88,0,0,0,2484.51,424.78Z"/><path d="M1007.05,2084.17a7.39,7.39,0,0,1-7.37-7.47l7.8-1146.33a7.42,7.42,0,0,1,5-7L2484,423.36l.48,1.42-.48-1.42a7.38,7.38,0,0,1,9.74,7.07L2487,1420.84a7.43,7.43,0,0,1-4.38,6.72l-1420.6,634.79-52.22,21.27A7.29,7.29,0,0,1,1007.05,2084.17ZM2486.41,426a4.31,4.31,0,0,0-1.41.24l-1471.54,500a4.42,4.42,0,0,0-3,4.15l-7.8,1146.33a4.34,4.34,0,0,0,1.93,3.69,4.28,4.28,0,0,0,4.08.43l52.18-21.25,1420.55-634.77a4.43,4.43,0,0,0,2.61-4l6.74-990.41a4.4,4.4,0,0,0-4.36-4.45Z"/><path class="cls-15" d="M2456.19,410.54a19.41,19.41,0,0,0-4.31,1.19c-.91.36-1.87.63-2.8.95-2.54.89-5.1,1.73-7.65,2.6L2408,426.64l-50.4,17.13-65.22,22.16L2214.5,492.4l-88.42,30-96.79,32.89-103,35-107.12,36.4L1710.08,663.8l-108.86,37L1494.71,737l-102,34.67-95.37,32.41-86.6,29.43-75.66,25.71-62.59,21.27-47.37,16.09-30,10.2-10.49,3.56a5.9,5.9,0,0,0-4,5.56l-.18,25.77-.48,70.7-.72,105.88-.89,131.31-1,147-1,152.88-1,149-.92,135.44-.77,112.07-.53,79-.17,24c0,3.91-1.37,10.72-.28,14.46,2,6.7,11.46,11.61,16.93,15l21.78,13.44c5.57,3.43,12.57,6.93,18.25,3.7,3-1.72,4.84-5,6.33-8.18,7.62-16.28,11.45-35.19,23.4-49.11,5.4-6.3,11.89-8.77,19.17-12l32.87-14.68,87.83-39.25,112.27-50.16,130.67-58.4,143.07-63.92L1734.62,1733l149.79-66.93,144.11-64.39,132.42-59.18,114.71-51.25,91-40.65,61.22-27.36,25.45-11.37.37-.17a5.91,5.91,0,0,0,3.49-5.36l.09-12.7.38-56.12.62-91.87.81-117.68.9-133.55.95-139.49.93-135.49.82-121.56.36-52.45c.14-19.74-2.83-42.26,9.32-59.2a57.55,57.55,0,0,1,10.45-10.53c7.13-5.85,14.76-11.1,21.5-17.39,2.79-2.61,5.48-5.47,6.93-9s1.42-7.91-.93-10.92a17,17,0,0,0-5-3.83L2496,429l-20.1-11.83C2468.92,413.11,2463.23,409.49,2456.19,410.54Zm-52.69,967a5.18,5.18,0,0,1-3.12,4.7L1123.28,1942.8l-46.91,18.79a5.28,5.28,0,0,1-7.31-4.78L1071.15,956a5.16,5.16,0,0,1,3.57-4.87L2398.29,508a5.26,5.26,0,0,1,7,4.88Z"/><path class="cls-16" d="M2510.29,438.37a17,17,0,0,0-5-3.83L2496,429l-20.1-11.83c-6.93-4.08-12.62-7.7-19.66-6.65a19.41,19.41,0,0,0-4.31,1.19c-.91.36-1.87.63-2.8.95-2.54.89-5.1,1.73-7.65,2.6L2408,426.64l-50.4,17.13-65.22,22.16L2214.5,492.4l-88.42,30-96.79,32.89-103,35-107.12,36.4L1710.08,663.8l-108.86,37L1494.71,737l-102,34.67-95.37,32.41-86.6,29.43-75.66,25.71-62.59,21.27-47.37,16.09-30,10.2-10.49,3.56a5.9,5.9,0,0,0-3.36,2.93l90.61,40.24a5.22,5.22,0,0,1,2.86-2.32L2398.29,508a5.26,5.26,0,0,1,7,4.88l-1.8,864.65a5.18,5.18,0,0,1-3.12,4.7L1123.28,1942.8l-8.13,3.26-2,64.64,86-38.45,112.27-50.16,130.67-58.4,143.07-63.92L1734.62,1733l149.79-66.93,144.11-64.39,132.42-59.18,114.71-51.25,91-40.65,61.22-27.36,25.45-11.37.37-.17a5.91,5.91,0,0,0,3.49-5.36l.09-12.7q.18-28.07.38-56.12.32-45.93.62-91.87l.81-117.68.9-133.55q.48-69.74.95-139.49l.93-135.49q.4-60.78.82-121.56l.36-52.45c.14-19.74-2.83-42.26,9.32-59.2a57.55,57.55,0,0,1,10.45-10.53c7.13-5.85,14.76-11.1,21.5-17.39,2.79-2.61,5.48-5.47,6.93-9S2512.64,441.38,2510.29,438.37Z"/><path class="cls-17" d="M2504.65,437.94,1033.11,938a5.88,5.88,0,0,0-4,5.56l-7.81,1146.33a5.88,5.88,0,0,0,8.08,5.52l52.18-21.26,1420.6-634.78a5.91,5.91,0,0,0,3.49-5.36l6.74-990.41A5.87,5.87,0,0,0,2504.65,437.94ZM2452,1405.2a5.17,5.17,0,0,1-3.12,4.69l-1277.1,560.57-46.91,18.78a5.28,5.28,0,0,1-7.31-4.78l2.09-1000.77a5.17,5.17,0,0,1,3.57-4.87L2446.79,535.66a5.27,5.27,0,0,1,7,4.89Z"/><path class="cls-14" d="M1804.75,1222.59v66.88a1.19,1.19,0,0,0,1.56,1.15h0l395-138.5a1.21,1.21,0,0,0,.81-1.15V1084.1a1.2,1.2,0,0,0-1.6-1.14l-395,138.48A1.22,1.22,0,0,0,1804.75,1222.59Z"/><path d="M1805.93,1292.18a2.65,2.65,0,0,1-1.53-.49,2.73,2.73,0,0,1-1.15-2.22v-66.88a2.72,2.72,0,0,1,1.82-2.57l395-138.48a2.71,2.71,0,0,1,3.6,2.56V1151a2.72,2.72,0,0,1-1.81,2.57l-395,138.49A2.73,2.73,0,0,1,1805.93,1292.18Zm.32-69.39v66.26l394.41-138.28v-66.26Z"/><path class="cls-14" d="M1813.77,1331.94l1.82,66.86a1.19,1.19,0,0,0,1.59,1.11h0l391.12-149.32a1.19,1.19,0,0,0,.77-1.17l-1.82-66.84a1.2,1.2,0,0,0-1.63-1.1l-391.08,149.3A1.24,1.24,0,0,0,1813.77,1331.94Z"/><path d="M1816.78,1401.48a2.61,2.61,0,0,1-1.48-.45,2.75,2.75,0,0,1-1.21-2.18l-1.82-66.87a2.72,2.72,0,0,1,1.75-2.61l391.07-149.31a2.71,2.71,0,0,1,3.67,2.47l1.82,66.84a2.7,2.7,0,0,1-1.74,2.61l-391.11,149.33A2.89,2.89,0,0,1,1816.78,1401.48Zm-1.5-69.38,1.8,66.24,390.5-149.09-1.8-66.24Z"/><path class="cls-18" d="M2467.14,514.43l-1347.86,458a5.41,5.41,0,0,0-3.66,5.09l-1.51,221.15-5.64,828.83a5.38,5.38,0,0,0,7.4,5.06l47.79-19.47,1301.21-581.43a5.41,5.41,0,0,0,3.19-4.91l4.73-694.66,1.45-212.51A5.39,5.39,0,0,0,2467.14,514.43Z"/><path class="cls-19" d="M2330.42,657.41,1285.93,995.69a4,4,0,0,0-2.83,3.76l-1.17,163.35L1277.56,1775a4.15,4.15,0,0,0,5.73,3.73l37-14.37,1008.33-429.44a4,4,0,0,0,2.48-3.63l3.66-513.07,1.13-156.95A4.15,4.15,0,0,0,2330.42,657.41Z"/><path class="cls-20" d="M2214.24,742.49a11.57,11.57,0,0,0-2,0c-3.27.33-7.07,2.39-10.16,3.43l-63.93,21.6L2033.05,803l-130.89,44.21L1760.74,895l-136.66,46.16L1507.5,980.57,1426.27,1008l-30.55,10.32a3.27,3.27,0,0,0-2.22,3.08l-.92,133.52-.38,55.43-.89,130.73-1,152.87-.83,121.86-.2,28.4c0,2.61-.16,5.25,0,7.86.49,11.23,14.14,15,23.1,20a4,4,0,0,0,1.8.67,3.82,3.82,0,0,0,1.89-.57,22,22,0,0,0,6.84-5.64,54.52,54.52,0,0,0,4.9-8c6.46-11.67,12.58-19.79,24.45-25.06l17.45-7.75,44.92-20L1635.61,1552l146-64.84,150.76-67,135.44-60.16,100-44.43,44.48-19.76.65-.29a3.26,3.26,0,0,0,1.95-3l2.87-419.4c.11-16-.23-31.64,3-47.37,4.53-22,16.44-41.49,22.55-63a5,5,0,0,0,.21-3,5.2,5.2,0,0,0-2.43-2.38C2233.35,752.83,2223.27,743.07,2214.24,742.49Z"/><path class="cls-18" d="M1417.68,1170l-3.42,500.4a3.26,3.26,0,0,0,4.49,3l29-11.75,790.25-351a3.26,3.26,0,0,0,1.95-3l2.87-419.4Z"/><path class="cls-21" d="M1729.72,1141a7.44,7.44,0,0,0-3.64.47c-1.58.59-3.17,1.16-4.75,1.74l-14.65,5.36-60.55,22.14-73.57,26.92-62.11,22.72-26.16,9.57v24.68l0,60.62v76.58l0,72.54v48.51c0,2,0,4,0,5.94.1,3.38,2.65,5.56,5.47,7,5.84,3,8.08-4,10.68-7.48,4.18-5.65,11.08-8,17.28-10.66l16.51-7.15,38.73-16.77,84-36.39,61.8-26.76c.81-.35,11-4,11-4.79v-92.88l0-92v-58.22c0-8.87,2.67-16,8.16-23.26.52-.68,1.08-1.52.77-2.31a2.28,2.28,0,0,0-.71-.87C1735.32,1143.75,1732.78,1141.38,1729.72,1141Z"/><polygon class="cls-22" points="1738.72 1144.58 1493.17 1234.41 1493.12 1526.6 1738.66 1420.26 1738.72 1144.58"/><path class="cls-22" d="M2243.72,760a3.27,3.27,0,0,0-4.32-3.12l-818.58,276.52a3.27,3.27,0,0,0-2.22,3.08l-.92,133.52,825.16-281.7Z"/><path class="cls-22" d="M1793.85,1116.25v66.89a1.2,1.2,0,0,0,1.57,1.15h0l397.41-138.51a1.22,1.22,0,0,0,.81-1.15V977.76a1.21,1.21,0,0,0-1.61-1.15L1794.67,1115.1A1.22,1.22,0,0,0,1793.85,1116.25Z"/><path class="cls-22" d="M1793.85,1220.16v66.89a1.2,1.2,0,0,0,1.57,1.15h0l397.41-138.5a1.22,1.22,0,0,0,.81-1.15v-66.87a1.21,1.21,0,0,0-1.61-1.15L1794.67,1219A1.22,1.22,0,0,0,1793.85,1220.16Z"/><path class="cls-22" d="M1802.93,1329.52l1.83,66.87a1.2,1.2,0,0,0,1.59,1.11h0l393.46-149.33a1.23,1.23,0,0,0,.79-1.17l-1.83-66.85a1.23,1.23,0,0,0-1.65-1.11l-393.43,149.32A1.22,1.22,0,0,0,1802.93,1329.52Z"/><path class="cls-23" d="M2875,640c-2-.38-3.95.1-7,1.17-2.67.94-5.37,1.82-8.05,2.72l-36.69,12.4-55.6,18.78-71.78,24.25-85.24,28.79-96,32.42-104,35.12-109.24,36.9L2189.7,870.34,2078.1,908l-108.69,36.72-103,34.81-94.68,32-83.59,28.24-69.76,23.57-53.21,18-33.92,11.46-11.92,4a5.4,5.4,0,0,0-3.68,5.09l-1.52,221.17-.14,20.71-.39,56.52-.57,84-.71,103.19-.78,114.06-.8,116.62-.76,110.85-.66,96.79-.51,74.4-.3,43.71c0,1.87-.06,3.74,0,5.61.06,5.68,1.11,6.83,6,10,9,5.74,18,11.33,27,17a2.93,2.93,0,0,0,2.25.66,2.84,2.84,0,0,0,1.42-1.26c9.49-13.66,11-34.5,27.43-42.17,4.11-1.92,8.29-3.68,12.43-5.52l39.73-17.65,57.35-25.48L1754.4,2053l84.72-37.63,94.48-42,101.6-45.13,106.11-47.14,108-48,107.23-47.63,103.85-46.14,97.86-43.47,89.24-39.64,78-34.64,64.11-28.48,47.62-21.16,28.5-12.65,7.27-3.23a5.42,5.42,0,0,0,3.21-4.91l4.76-694.72.19-28,.6-86.89c.09-14-3-29.1,3.54-41.68a98.29,98.29,0,0,1,13-19c3-3.48,10.48-8.36,11.39-12.75.86-4.1-3-7.78-5.71-10.21-6.89-6.22-15.63-9.92-23.18-15A16.1,16.1,0,0,0,2875,640Z"/><path class="cls-24" d="M2904.85,661.48,1548.9,1119.53a5.4,5.4,0,0,0-3.68,5.09l-1.52,221.17-5.67,828.9a5.41,5.41,0,0,0,7.44,5.06l48.08-19.47,1309-581.48a5.43,5.43,0,0,0,3.22-4.91l4.75-694.72L2912,666.64A5.41,5.41,0,0,0,2904.85,661.48Z"/><path class="cls-25" d="M2256.15,1799.55a9.54,9.54,0,0,0,13.41,8.75l598.58-264.75a4.81,4.81,0,0,0,2.87-4.35l4.23-615.58,1.3-188.32a4.82,4.82,0,0,0-6.36-4.58L2268.53,933.08a9.5,9.5,0,0,0-6.48,8.94l-.91,132.1Z"/><path class="cls-14" d="M2834.55,1530.12a1.5,1.5,0,0,1-1.5-1.5V780.8a1.5,1.5,0,0,1,3,0v747.82A1.5,1.5,0,0,1,2834.55,1530.12Z"/><path class="cls-14" d="M2296.08,959.14a1.51,1.51,0,0,1-1.43-1,1.49,1.49,0,0,1,1-1.89l538.47-176.85a1.5,1.5,0,0,1,.93,2.85L2296.54,959.07A1.47,1.47,0,0,1,2296.08,959.14Z"/><g class="cls-26"><path class="cls-27" d="M2833.72,1525.11a4.16,4.16,0,0,1-2.49,3.79l-521.8,230.79a8.32,8.32,0,0,1-11.7-7.63l.7-100.5,1.51-220.06,1.5-217.84.42-61.53c.1-14.7-3.11-48.53,22.47-27.52,23.62,19.39,37.11,49.07,61.21,67.86,20.32,15.85,46.33,22.11,71.77,22.31,26.63.21,47.25-18.55,72.91-25.29,17.8-4.68,37.13-5.46,54.31,1.12,9.65,3.69,18.31,9.55,27.62,14,17.87,8.57,37.89,11.86,57.71,12.62,6.69.25,13.48.22,20-1.39,10.51-2.62,19.52-9.15,28.39-15.34,31.56-22,66.16-41.9,104.4-46.75,18.82-2.39,13.61,10.61,13.49,23.63-.15,15.09-.21,30.18-.31,45.27l-.64,92-1.07,155.79Q2833.92,1497.8,2833.72,1525.11Z"/></g><path class="cls-28" d="M2833.72,1529.92a4.29,4.29,0,0,1-2.49,3.89l-521.8,236.51a8.33,8.33,0,0,1-11.7-7.81l.7-103,1.51-225.53q.22-32.58.44-65.15c.07-11.1-6.42-48.52,13.57-34.07,24.62,17.8,38.84,46.9,60.59,68.21,30.07,29.47,73.31,42.19,115,41,10.42-.3,20.91-1.4,30.87-4.57,12.68-4,24.11-11.28,35.53-18.21,31.56-19.14,67.28-37,103.49-30.78,25.75,4.44,48,20.56,72.6,29.48s56.78,8.12,71.4-14c3.94-5.94,6.29-13,11.22-18.13,17.82-18.44,20,8.38,19.9,20q-.24,33.06-.44,66.11Q2833.92,1501.93,2833.72,1529.92Z"/><path class="cls-14" d="M2388.37,1734.68a1.5,1.5,0,0,1-1.5-1.5v-806a1.5,1.5,0,0,1,3,0v806A1.5,1.5,0,0,1,2388.37,1734.68Z"/><path class="cls-14" d="M2297.73,1774.44a1.5,1.5,0,0,1-1.5-1.5V952.87a1.5,1.5,0,1,1,3,0v820.07A1.5,1.5,0,0,1,2297.73,1774.44Z"/><path class="cls-14" d="M2475.31,1694a1.5,1.5,0,0,1-1.5-1.5V898.78a1.5,1.5,0,0,1,3,0v793.76A1.5,1.5,0,0,1,2475.31,1694Z"/><path class="cls-14" d="M2558.58,1657.63a1.5,1.5,0,0,1-1.5-1.5V871.9a1.5,1.5,0,0,1,3,0v784.23A1.5,1.5,0,0,1,2558.58,1657.63Z"/><path class="cls-14" d="M2640.72,1619.61a1.5,1.5,0,0,1-1.5-1.5l-.43-773.51a1.5,1.5,0,1,1,3,0l.43,773.51A1.5,1.5,0,0,1,2640.72,1619.61Z"/><path class="cls-14" d="M2723.56,1583.31a1.5,1.5,0,0,1-1.5-1.5V817.25a1.5,1.5,0,0,1,3,0v764.56A1.5,1.5,0,0,1,2723.56,1583.31Z"/><path class="cls-14" d="M2790.44,1552.14a1.5,1.5,0,0,1-1.5-1.5V796.11a1.5,1.5,0,0,1,3,0v754.53A1.5,1.5,0,0,1,2790.44,1552.14Z"/><path class="cls-5" d="M2205.14,969a9.58,9.58,0,0,0-12.64-9.14l-532.28,179.81a4.83,4.83,0,0,0-3.28,4.55l-1.36,197.47-5.06,740.07a4.82,4.82,0,0,0,6.64,4.51l42.93-17.38,493.39-219.17a9.57,9.57,0,0,0,5.68-8.68l5.15-750.9Z"/><path class="cls-4" d="M2165.65,1020.46c0-5.91-5.5-10.11-10.85-8.22l-457.57,161.38a4.34,4.34,0,0,0-2.83,4.09l-.57,77.1c0,7.64,7.11,13,14,10.58l450.08-160.59a11.05,11.05,0,0,0,7.17-10.41Z"/><polygon class="cls-3" points="1940.13 1273.9 1700.17 1355.51 1693.63 1638.68 1933.96 1541.08 1940.13 1273.9"/><polygon class="cls-3" points="1697.09 1686.78 1690.89 1955.28 1931.22 1857.68 1937.39 1590.51 1917.4 1597.31 1697.09 1686.78"/><path class="cls-23" d="M1981.05,1390.09a3,3,0,0,1-1-5.84l165.34-56.53a3,3,0,1,1,1.94,5.68L1982,1389.93A3,3,0,0,1,1981.05,1390.09Z"/><path class="cls-23" d="M1981.05,1439.82a3,3,0,0,1-1-5.84l165.34-56.52a3,3,0,1,1,1.94,5.67L1982,1439.66A3,3,0,0,1,1981.05,1439.82Z"/><path class="cls-23" d="M1981.05,1684.89a3,3,0,0,1-1-5.84l165.34-56.53a3,3,0,0,1,1.94,5.68L1982,1684.73A3,3,0,0,1,1981.05,1684.89Z"/><path class="cls-23" d="M1981.05,1735.87a3,3,0,0,1-1-5.84l165.34-56.53a3,3,0,1,1,1.94,5.68L1982,1735.71A3,3,0,0,1,1981.05,1735.87Z"/><path class="cls-14" d="M2297.74,1775.7a1.5,1.5,0,0,1-.62-2.87l538.34-243.67a1.5,1.5,0,1,1,1.24,2.73l-538.35,243.68A1.49,1.49,0,0,1,2297.74,1775.7Z"/><path class="cls-14" d="M1233.87,2254.92l0,0-.07,0Z"/><path class="cls-29" d="M715.3,1812l110.35,311.12,46.73,131.76.14.23a3.12,3.12,0,0,0,.73.78c.4.29.81.56,1.22.83.83.56,44.4,26.34,75.73,34.45,65.18,16.87,99.82,13.47,102.62,13.47,72.55,0,137.48-19.32,181-49.76l.07,0,46.46-131L1391,1812Z"/><path class="cls-30" d="M1043.57,1819.15v21.47q0,133.82-.15,267.63-.06,66.91-.07,133.82c0,18.27-5.79,35.09,14.22,36.85,18.94,1.67,40-4.38,58.6-7.68,37.43-6.64,75-19.19,106.84-41.45l.06,0,43.83-123.6L1371.25,1812C1332.07,1812,1043.57,1805.71,1043.57,1819.15Z"/><path class="cls-31" d="M695.72,1811.49c1.21,10.34,3.48,20.21,7.5,29.08,22.68,50.1,80.7,73.39,123.13,88.44,74.41,26.39,153.28,35.48,230.66,35.48,101.15,0,218.84-11.08,308.22-73.76,20.58-14.43,43.35-34.74,50.23-63.55,5.57-23.3,2.53-46.56,3.21-70.25.53-18.92-6-29.24-16.41-44-21.26-30.29-49.11-54.3-80.31-68.68-19.42-9.93-43.33-12-64.1-16.82q-35.1-8.07-70.35-15.28c-20-4.1-40.16-7.66-60.22-11.69-18.17-3.64-35.24-.94-53.68-2.58-16.81-1.49-33.7-2.55-50.62-2.77-34.74-.47-69.91,2.13-103.3,14.13-18.4,6.61-36.8,16.2-56.3,17-8.44.36-16.79-3.51-24.71-2.16-8.62,1.46-18.22,8-26.39,11.59-29,12.78-62.53,23-85.11,49.2C698.54,1718.05,690.43,1766.29,695.72,1811.49Z"/><path class="cls-32" d="M723.5,1787.18c19,21.43,46.4,38.31,66.76,46.28,15.64,6.12,24.08,18.08,37.29,24.85,16.08,8.24,43.68,7.72,61.51,10.27,39.46,5.65,79.15,9.57,118.91,12.25,33,2.23,51.64,3.4,82.35-7.24s63.29-13.31,95.41-14.73c44.32-1.95,89.76-1.93,131.36-17.67,37.06-14,86.13-54.43,90.67-98,4.73-45.38-52-81.7-85.81-99-19.42-9.93-43.33-12-64.1-16.82q-35.1-8.07-70.35-15.28c-20-4.1-40.16-7.66-60.22-11.69-18.17-3.64-35.24-.94-53.68-2.58-16.81-1.49-33.7-2.55-50.62-2.77-34.74-.47-69.91,2.13-103.3,14.13-18.4,6.61-36.8,16.2-56.3,17-8.44.36-16.79-3.51-24.71-2.16-8.62,1.46-18.22,8-26.39,11.59-41.51,18.32-101.72,40-110.5,93.5C698.37,1749.91,708.25,1770,723.5,1787.18Z"/><path class="cls-33" d="M1054.27,1605.61c-203.63,0-368.7,68.57-368.7,153.16s165.07,153.17,368.7,153.17S1423,1843.36,1423,1758.77,1257.89,1605.61,1054.27,1605.61ZM1052,1878.84c-185.94,0-336.68-57.12-336.68-127.57S866,1623.7,1052,1623.7s336.69,57.11,336.69,127.57S1237.93,1878.84,1052,1878.84Z"/><path class="cls-31" d="M1056.55,1589.39c-203.62,0-368.69,68.57-368.69,153.16s165.07,153.17,368.69,153.17,368.7-68.58,368.7-153.17S1260.18,1589.39,1056.55,1589.39Zm-2.28,273.23c-185.95,0-336.68-57.12-336.68-127.58s150.73-127.57,336.68-127.57S1391,1664.59,1391,1735,1240.21,1862.62,1054.27,1862.62Z"/><ellipse class="cls-34" cx="1052.13" cy="1771.53" rx="238.95" ry="60.51"/><path class="cls-35" d="M1158.17,1722.14a95.63,95.63,0,0,0,13.29,23.66c6.06,7.81,16.27,15,25.14,10.69,6-2.94,8.57-10,10.41-16.39,17.74-62,15-125.86,19.89-189.48,6.94-89.61,21.3-178.51,39.52-266.47,9.14-44.09,19.27-88,30-131.7,9.8-40,16.75-83.13,35.14-120.24,9.12-18.42,21.93-8.36,30.11,6.16q24.18,42.9,48.35,85.8c1.8-24.51,3.57-49.51-2.3-73.38s-20.73-46.86-43.49-56.14c-52.85-21.55-68.54,36.06-76.25,74.34l-79.44,394.5q-6.75-137-13.51-274c-4.37-88.72-1.88-212.35-52.71-289.73-18.6-28.31-53.44-48.88-86.18-40.19-22.74,6-39.88,24.41-54.51,42.83-11.75,14.8-22.72,36.69-10.39,51,29.76-20,33.06-70.08,67.2-81.06,32.66-10.51,61.46,24.5,74.19,56.37,28.34,70.93,33,148.75,37.28,225,9.94,176.13,20.63,352.23,29.44,528.42L1142,1453.25c-3.84-15.31-8.27-31.63-20.22-42-12.64-10.92-30.93-12.51-47.51-10.46-51.61,6.39-97.69,45.51-112.35,95.41,23.11-9.64,39.28-30.39,58-47s45-30,68.18-20.53c24.18,9.84,33,39,38.08,64.58a1150.63,1150.63,0,0,1,19.29,148.86C1147.16,1669.07,1148.44,1697.54,1158.17,1722.14Z"/><path class="cls-25" d="M1281.82,1732a198.35,198.35,0,0,0-62.33-72.68c-19.79-14-43.71-26.24-52-49-1.34-3.66-2.21-7.61-1.51-11.44,1.59-8.56,10.76-13.93,19.45-14.45,19.59-1.2,35.33,15.4,46.74,31.38a396.69,396.69,0,0,1,46,84.68c35.73-59.26,34.11-139-4-196.77-7.94-12-17.56-23.36-30.09-30.56-44.48-25.52-97.69-4.77-140,14.56-38.16,17.42-49.23,20.2-66-23.37q-10.75-28-22.82-55.58c-9.22-21-20-43-39.53-55.1-24.75-15.37-56.8-10.79-84.69-2.35a367,367,0,0,0-106,52c-19.9,14.13-38.55,30.44-52.62,50.38-13.12,18.59-21.91,39.8-30.6,60.83-18,43.49-36.25,88.6-34.94,135.63,14.42.28,26-11.1,36.53-20.95,53.81-50.29,127.05-79.24,200.71-79.33,6.88,0,14.4.47,19.51,5.08,6.06,5.48,6.48,15.28,3.05,22.69s-9.89,12.93-16.36,17.92c-67.94,52.34-156.45,71.77-225.63,122.44,16.86,118.63,117.47,207.44,158.89,319.88,17-5.16,29.59-19.14,41.9-32a568.92,568.92,0,0,1,193.89-132c14.66-6,31.75-13.92,34.51-29.52,1.2-6.76-.71-13.65-2.78-20.19-12.59-39.63-32.24-77.63-36.25-119-1.65-17-.12-35.5,10.61-48.78s33.09-17.9,44.93-5.59c6.73,7,8.53,17.23,9.85,26.83a798.47,798.47,0,0,1,5.88,157,1041.18,1041.18,0,0,0,126.29-65.13c5-3,10.29-6.41,12.9-11.69C1289.32,1749.71,1285.85,1740.06,1281.82,1732ZM857.53,1469a320.61,320.61,0,0,0-65.8,9c-.94.23-9.82,3.18-6.45-1.07,32.64-41.17,87.49-48.22,136.15-38.21,2.73.57,5.54,1.21,7.83,2.81,2.5,1.73,4.15,4.41,5.52,7.13,5.71,11.32,2.54,20.53-10.81,22.91-6.18,1.1-12.52.17-18.76-.57A317.71,317.71,0,0,0,857.53,1469Z"/><path class="cls-36" d="M1280.28,1730.52a197.4,197.4,0,0,0-62-72.34c-19.7-14-43.51-26.12-51.8-48.79-1.33-3.64-2.2-7.58-1.5-11.39,1.58-8.52,10.71-13.86,19.36-14.38,19.5-1.19,35.17,15.33,46.52,31.23a394.38,394.38,0,0,1,45.82,84.29c35.57-59,34-138.36-4-195.86-7.9-12-17.48-23.25-30-30.41-44.28-25.41-97.23-4.75-139.4,14.5-12.66,5.78-24.72,7.81-37.4,11.7-14.39,4.43-19.26,16-28.15,29.72q-29.81,45.89-57.06,93.35-32.84,57.16-61.82,116.43c-10,20.53-21.82,41.49-29.49,63-6.56,18.41-8.65,38.38-14.91,57.47a760.28,760.28,0,0,0-33.72,157.18c-4,38.26,35.83-3.57,45-13.15a566.34,566.34,0,0,1,193-131.38c14.6-6,31.61-13.84,34.36-29.38,1.19-6.72-.71-13.58-2.78-20.09-12.52-39.45-32.08-77.27-36.07-118.46-1.64-16.92-.13-35.34,10.56-48.56s32.93-17.81,44.72-5.56c6.7,7,8.49,17.15,9.8,26.71a794.78,794.78,0,0,1,5.86,156.24,1035.81,1035.81,0,0,0,125.7-64.83c5-3,10.24-6.38,12.84-11.63C1287.75,1748.14,1284.29,1738.53,1280.28,1730.52Z"/><path class="cls-36" d="M1613.48,1170.29q56,11.4,111,27.38a116.33,116.33,0,0,0,5.34-84.25c-58.94-6.81-117.35,13.33-176.4,19.07-4.35.43-9,.7-12.77-1.56-10.28-6.23-3.22-22.42,6.08-30,22.42-18.36,52.23-25.19,81.16-26.91s58,1.07,86.95-.71c37-2.29-29.08-70.75-39.7-83.1-17.2-20-35.83-39.48-59-52.14-48.39-26.46-153.62-37.17-196,6.37-25.79,26.54-25.66,65.91-31.87,100-4.66,25.64-20.6-8.39-27.78-18-11.69-15.69-24.58-30.62-39.93-42.85-26.19-20.87-61.32-33.34-93.62-24.52-12.16,3.32-23.43,9.5-33.51,17.08-36.36,27.35-56.51,72-63.59,117s-2.53,90.83,2,136.1a984.33,984.33,0,0,1,155-107.21c11-6.15,23.34-12.28,35.69-9.72,6.51,11.93-5.11,25.42-15.81,33.81a861.89,861.89,0,0,1-119.94,78.9c-14.21,7.74-31,19.74-27.69,35.57,1,4.59,3.61,8.62,6.32,12.45a245.39,245.39,0,0,0,101.67,82.84A359.48,359.48,0,0,1,1314,1204.48c11.19-19.39,25.45-38.73,46.38-46.68,1.76-.67,3.74-1.24,5.47-.52,2.33,1,3.17,3.81,3.57,6.3,5.23,33.25-18.18,63.18-35.54,92a292.7,292.7,0,0,0-39.79,116l79.46,44.87c4.39-48.79,10.14-101,41.87-138.32,4.06-4.79,9.89-9.66,15.91-7.89,7.52,2.2,8.6,12.32,7.75,20.1-5.3,48.39-27.42,93.09-49.19,136.63a699.76,699.76,0,0,0,153.13,54.6l49-79c1.28-2,2.59-4.2,2.84-6.6.5-4.69-3-8.75-6.43-12-25.6-24.69-57.83-43.07-78-72.41-6-8.78-11-19.18-9.53-29.73s11.58-20.37,22-18c6.46,1.46,11.15,6.88,15.3,12a829.49,829.49,0,0,1,82.16,123.24,670.24,670.24,0,0,0,56-101.41,710.93,710.93,0,0,0-137.19-61.48c10.09-13.37,31-8.76,46.32-1.89a403.35,403.35,0,0,1,84.34,51.17c3.57,2.82,7.84,5.88,12.26,4.76a13.6,13.6,0,0,0,5.53-3.48,83,83,0,0,0,26.42-52.6c.22-2.16.32-4.46-.72-6.36-1.35-2.45-4.2-3.59-6.83-4.52a559.92,559.92,0,0,0-135.85-29.65c-24.36-2.2-51-3.63-69.22-19.9C1535.68,1157,1576.18,1162.71,1613.48,1170.29Zm-384.66-72.86c-.44,2.3-2.23,4.07-3.93,5.67l-9.09,8.58c-23.4,22.07-49.23,42.9-71.16,66.31a27.83,27.83,0,0,1-1-11.71c1.89-17.38,15.81-38.28,23.06-50.8,13-22.54,22.43-27.14,48.38-27.24,3.16,0,6.44.11,9.26,1.55S1229.41,1094.33,1228.82,1097.43Zm235.63-63.18c-2.6,2-5.46,4.06-8.71,3.92-3.87-.17-7-3.7-7.78-7.48s.16-7.72,1.48-11.36c8.24-22.76,28.77-38.87,50.2-50.14,14.22-7.48,29.17-14.17,44-20.45,4.93-2.09,10.39-2.71,15.63-3.67,7.14-1.3,12.71,1.67,19,4.75,2.28,1.12,22.94,16.18,22.49,16.42C1556.05,990.6,1505.21,1003.84,1464.45,1034.25Z"/><path class="cls-36" d="M1024.26,1057.36a361.27,361.27,0,0,1,30.35,92.06c2.12,11.42-1.44,24.45,11.18,28.06,8.38,2.39,24,.8,31-4.77,14.79-11.71,23.37-39.55,31-56.23,8.55-18.62,5.8-24.32-6.23-39.84-19-24.5-36.75-51.34-42.87-82.23-2.93-14.86-2.8-31.17,5.15-44,5.07-8.21,12.88-14.34,21-19.54a157.55,157.55,0,0,1,47.39-20.26c5.15-1.26,10.56-2.25,15.71-1,3.77.9,7.16,2.93,10.43,5,14.08,8.93,27.53,19.43,37,33.15s14.62,31.08,11,47.35c10,12.77,22.69-32.35,24.92-38.18q11.23-29.34,20.17-59.51c7.46-25.17,12.19-56.33-7-74.24-11.18-10.44-28-13-43-10.12s-28.68,10.49-41.81,18.35c-18.42,11-89.94,76.73-110.7,57.65-10.39-9.54-5.1-46.82-11.26-61.5a95.16,95.16,0,0,0-41.88-46.69c-24.23-13.07-52.88-14.83-80.41-14.11a498.66,498.66,0,0,0-169.25,34.08C696,828.42,642.67,875.21,608.84,942.94A233,233,0,0,1,740,884.46c.07,5.44-3.58,10.38-8.11,13.41s-9.9,4.49-15.11,6.06c-75.84,22.84-151.11,76.88-171.24,157.13-13.09,52.2-9,108.1,3.09,160.08,6.35,27.32,16.11,54.78,35.09,75.43,37.54-61,96.22-114.45,151-159.8,8.07-6.68,16.61-13.41,26.78-15.92s22.44.39,27.76,9.42c5.55,9.44,1.54,22.1-6.12,29.94S765,1172.28,755,1176.83a333.89,333.89,0,0,0-157.6,150.93,1114.1,1114.1,0,0,1,70.09,109.81c7.15-20.8,20.16-38.62,31.91-57,7.44-11.63,14.9-23.29,23.84-33.79,43.63-51.27,118.12-70.55,156.13-126.1,21.94-32.06,28.53-71.76,37.77-109.49s23.33-77.14,54.55-100.25c3.42-2.53,7.42-4.94,11.64-4.39,3.2.42,5.93,2.48,8.37,4.6C1006,1023.62,1016,1040.32,1024.26,1057.36Zm-389.11,49.31c-11.56,6.86-23.51,13-35.28,19.54-6.43,3.55-25.84,19.84-32.93,19.18-23-2.16,3.39-38.65,9.1-46.82,24-34.31,59.27-60.93,99.37-73.36a22.06,22.06,0,0,1,8.32-1.39c7,.59,11.87,7.08,15.76,13C690.05,1067.8,663,1090.14,635.15,1106.67Z"/><path class="cls-25" d="M665.15,1445a103.1,103.1,0,0,1,12.33-30.93c8.36-13.88,14.49-28.15,25.41-40.67,8.32-9.54,18.13-17.67,27.89-25.74s19.2-16.9,30.1-23.39c11.6-6.92,23.38-13.52,35.28-19.91,26.8-14.33,54.13-28.49,83.83-35.61,12.34-3,25.59-4.94,35.43-12.75,14.27-11.34,17-31.15,18.67-49,2.53-26.77,5-53.91.33-80.4-2.83-15.89-8.21-32.41-3-47.74,6-17.82,28.68-33.33,42-46.19,1.75-1.69,3.74-3.47,6.17-3.55,2-.07,3.9,1.1,5.55,2.3,22.16,16.1,32.16,44.13,37,71.09,7.05,39,3.07,75.1-2.18,113.77,56.32-17.08,106.92-60,153.2-95.75l-76.31-124.83c-5.94-9.72-12.52-23.28-8.32-34.78,4-10.87,16-18.44,27-20,13.82-1.91,27.9,3.74,38.6,12.69s18.4,21,24.94,33.26a260,260,0,0,1,24.87,68.87c.24,1.15.63,2,1.79,2.27-.55-9.57,13.17-26.7,17.83-35.85q10.53-20.69,19.84-42a784.35,784.35,0,0,0,31.62-85.5c7.58-24.87,12.4-55.68-7.13-73.38-11.38-10.32-28.51-12.85-43.81-10s-29.19,10.37-42.56,18.14c-30,17.46-58.74,54.41-95.2,58.16-4.09.42-10.85,2.69-14.82,1.64-1.64-.43-10.56-9.83-9.76-10.27-6.46,3.56-9.36,11.19-14.4,16.57-4,4.25-9.23,7-13.79,10.66-10.7,8.48-17.14,21.06-24.81,32.36-17.11,25.23-38.21,47.56-56.94,71.47-22.32,28.51-41.5,59.46-65.24,86.81A339.25,339.25,0,0,1,861.36,1123c-9.74,9-15.2,18.9-23.07,28.89-9.87,12.55-23.67,23.37-34.64,35.12-38.6,41.37-73.78,86.26-101.23,135.86a304.52,304.52,0,0,0-16.28,33.45c-10.74,26.65-15,62.34-21,88.7Z"/><path class="cls-37" d="M662,1444.45a1.15,1.15,0,0,1-.26,0,1.5,1.5,0,0,1-1.22-1.73,410.11,410.11,0,0,1,46.58-130c30.11-53.5,72.1-99.83,112.72-144.64,17.82-19.66,36.25-40,53.42-60.65,23.95-28.81,46.92-59,69.15-88.1,34.89-45.76,71-93.08,111.49-136.13a4.69,4.69,0,0,0,1.34-1.94c.33-1.47-1.67-3-2.89-3.86-33.13-21.88-82.2-26.17-121.63-29.63l-10.2-.9c-44.31-4-83.82-3.85-120.77.58-42.24,5.06-80.15,15.49-115.87,31.87-24.71,11.34-45.13,26.22-60.69,44.23a1.5,1.5,0,0,1-2.27-2c15.84-18.33,36.6-33.47,61.71-45,36-16.52,74.21-27,116.76-32.13,37.17-4.45,76.88-4.65,121.4-.59,3.33.31,6.73.6,10.2.91,39.76,3.48,89.25,7.81,123,30.11,3.31,2.19,4.72,4.55,4.17,7a7.22,7.22,0,0,1-2.09,3.35c-40.41,42.93-76.44,90.19-111.29,135.89-22.24,29.17-45.24,59.34-69.22,88.2-17.22,20.71-35.67,41.06-53.51,60.74-40.5,44.69-82.38,90.9-112.33,144.1a407.26,407.26,0,0,0-46.23,129A1.5,1.5,0,0,1,662,1444.45Z"/><path class="cls-37" d="M541.32,1112.12a1.64,1.64,0,0,1-.67-.16,1.51,1.51,0,0,1-.67-2c22.76-45.38,59-85.5,104.78-116a357.15,357.15,0,0,1,146.5-56c38.4-5.52,77.68-3.59,115.65-1.74,32,1.57,65.12,3.19,97.5.34a1.48,1.48,0,0,1,1.62,1.36,1.5,1.5,0,0,1-1.36,1.63c-32.58,2.86-65.79,1.24-97.9-.33-37.84-1.85-77-3.77-115.09,1.71a354.33,354.33,0,0,0-145.26,55.58c-45.36,30.23-81.24,70-103.75,114.88A1.53,1.53,0,0,1,541.32,1112.12Z"/><path class="cls-37" d="M579.75,1291.15a1.42,1.42,0,0,1-.74-.2,1.49,1.49,0,0,1-.56-2c8.75-15.41,16.77-31.38,24.53-46.83,29.38-58.51,57.14-113.78,122.89-141.91,42.16-18,89.4-19.29,135.08-20.5,11.95-.31,24.31-.64,36.19-1.28a1.5,1.5,0,0,1,.16,3c-11.93.64-24.3,1-36.27,1.28-45.4,1.2-92.35,2.44-134,20.26-64.74,27.7-92.26,82.49-121.39,140.5-7.77,15.48-15.81,31.49-24.61,47A1.48,1.48,0,0,1,579.75,1291.15Z"/><path class="cls-37" d="M873.05,2019a1.41,1.41,0,0,1-.6-.13,1.5,1.5,0,0,1-.78-2c12.81-29.3,27.52-58,41.74-85.7,25-48.81,50.94-99.29,66.69-153.94,16.76-58.15,14.42-121.85,12.36-178a1.5,1.5,0,1,1,3-.11c2.07,56.42,4.42,120.37-12.47,179-15.84,54.93-41.8,105.54-66.91,154.48-14.2,27.69-28.89,56.32-41.66,85.53A1.49,1.49,0,0,1,873.05,2019Z"/><path class="cls-37" d="M1179.87,1816a.9.9,0,0,1-.23,0,1.49,1.49,0,0,1-1.25-1.71,281.45,281.45,0,0,0-16.62-147.51,182,182,0,0,0-15.9-31.71c-10.5-16.26-24.41-29.94-35.36-40a491.07,491.07,0,0,0-77.65-58.53,1.5,1.5,0,0,1,1.56-2.57,494.51,494.51,0,0,1,78.12,58.9c11.08,10.22,25.17,24.08,35.85,40.62a185.87,185.87,0,0,1,16.17,32.23,284.46,284.46,0,0,1,16.79,149.08A1.49,1.49,0,0,1,1179.87,1816Z"/><path class="cls-37" d="M1282.88,1687.9h-.07a1.5,1.5,0,0,1-1.43-1.57c2.17-47.78-2.83-84.21-15.75-114.64a138.53,138.53,0,0,0-46-57.65c-21.43-15.37-45.52-22.85-69.67-21.64-31.87,1.6-62.39,12.85-91.91,23.73-4.31,1.59-8.62,3.18-12.92,4.74a1.5,1.5,0,1,1-1-2.82q6.43-2.34,12.91-4.73c29.72-11,60.46-22.3,92.79-23.92,24.86-1.24,49.58,6.43,71.57,22.2a141.52,141.52,0,0,1,47.05,58.92c13.1,30.86,18.18,67.7,16,115.94A1.51,1.51,0,0,1,1282.88,1687.9Z"/><path class="cls-37" d="M844.05,2041.77H844a1.51,1.51,0,0,1-1.41-1.58,863.36,863.36,0,0,1,21.32-147.61c31-132.46,102.37-250.21,171.38-364.07q10.43-17.22,20.8-34.4a1.5,1.5,0,1,1,2.57,1.54q-10.35,17.2-20.8,34.41c-68.89,113.67-140.12,231.21-171,363.2a859.66,859.66,0,0,0-21.24,147.1A1.5,1.5,0,0,1,844.05,2041.77Z"/><path class="cls-37" d="M1537.52,1482.1a1.51,1.51,0,0,1-1.24-.65c-34-49.13-45.62-109.55-56.8-168-2.77-14.44-5.62-29.37-8.77-43.84a829.72,829.72,0,0,0-76.41-209.86c.87,16.66-9.94,38.15-32.32,64.14-16.7,19.41-36.43,36-55.5,52-17.21,14.47-35,29.44-50.5,46.41-26.37,28.89-43.62,59-51.27,89.36a1.5,1.5,0,0,1-2.91-.73c7.77-30.89,25.25-61.39,52-90.65,15.63-17.12,33.5-32.15,50.79-46.69,19-16,38.61-32.48,55.16-51.71,27.87-32.38,37.41-57.22,28.34-73.84l2.63-1.44a832.53,832.53,0,0,1,83,222.33c3.16,14.49,6,29.45,8.78,43.91,11.13,58.12,22.63,118.23,56.33,166.84a1.51,1.51,0,0,1-1.23,2.36Z"/><path class="cls-37" d="M1733.08,1173.12a1.49,1.49,0,0,1-.78-.22c-12.81-7.76-28.89-10.25-44.44-12.66-3.15-.49-6.13-1-9.11-1.46-20.37-3.48-41.14-6.15-61.72-7.94-12.67-1.1-25.48-2.07-37.87-3-40.12-3-81.62-6.16-122.43-14.28-13.55-2.7-25.48-5.61-34.32-14a1.5,1.5,0,1,1,2.06-2.18c8.26,7.8,19.76,10.59,32.84,13.2,40.64,8.08,82,11.2,122.08,14.22,12.4.94,25.22,1.91,37.9,3,20.66,1.8,41.51,4.48,62,8,3,.51,5.92,1,9.06,1.45,15.84,2.46,32.21,5,45.54,13.06a1.51,1.51,0,0,1-.78,2.79Z"/><path class="cls-37" d="M1363,1412.38a1.5,1.5,0,0,1-1.5-1.45c-1.75-47.4,7.91-96,28.68-144.43,4-9.38,8.62-18.65,13.47-28.46,15.32-31,31.16-63,27.48-97a1.5,1.5,0,1,1,3-.32c3.77,34.88-12.26,67.28-27.77,98.61-4.84,9.77-9.41,19-13.4,28.31-20.6,48-30.17,96.19-28.44,143.14a1.5,1.5,0,0,1-1.45,1.55Z"/><g class="cls-38"><path class="cls-39" d="M3494.39,1223.79c.1-.44.2-.89.29-1.33s.18-.89.26-1.33l.12-.7c3.08-18-1.35-36.42-9.61-54.61l-.27-.59-.63-1.36c-.33-.72-.67-1.43-1-2.14l0-.06c-.57-1.17-1.15-2.33-1.75-3.5l-.63-1.22c-.52-1-1-2-1.59-3l-.32-.59c-.63-1.16-1.28-2.32-1.94-3.48-.16-.27-.32-.55-.47-.83-.63-1.09-1.27-2.18-1.91-3.27l-.16-.27c-1.83-3.09-5.61-12.34-9-14.18-16.81-25.23-36.69-48.87-48.68-68.61-6-9.81-11.9-20-18-30.37-7.91-13.5-15.9-27-24.39-40.12-2.74-21.55-5-43.12-7-64.54-5.48-59.49-2.73-121-16.3-179.41a493,493,0,0,0-12.81-61.81c-9.7-35.22-24.54-77.86-55.91-99.07-32.35-21.86-73.94-26.62-111-15.51-35.38,10.59-71.2,31.48-81.51,65.15a26.08,26.08,0,0,0-2.07,3.77,107.79,107.79,0,0,0-5,14.06c-1.05,3.39-2,6.82-2.74,10.27h-.33c-1.88.15-4.89.26-6.22,1.81a2.75,2.75,0,0,0-.63,1.39c-.48,3.13,3,3.24,5.33,3.29l.49,0c-1.41,7.41-2.41,14.91-3.31,22.41-2.44.9-4.22,2.9-4.22,5.13a5.15,5.15,0,0,0,1.87,3.8,5.53,5.53,0,0,0,1.21.83c0,.21,0,.41-.07.62-.37,3.22-.7,6.56-1,10-2.3,3.34-4.93,6.48-6.94,10-2.61,4.61,2.61,7,6.5,8.53.87,27.89,9.63,56.12,40.24,66.39,13.51,4.53,23,11,27.89,24.74,4.31,12.07,4.47,25,4.59,37.76q0,4.46.08,8.91c-25-1.94-8.38,27.1-19.85,43-5.25,7.26-14.05,6.12-20.71,10.71-4.24,2.92-8,8.13-11.41,13a38.12,38.12,0,0,0-17.27-2.37c-42.4,3.67-64,43.69-78.59,78.75q-16.61,40-33.52,79.92-17.45,41.27-34.94,82.52c-7.23,17.08-15.78,35.59-32.55,43.5-12,5.66-26,4.69-39.16,3.16A598.25,598.25,0,0,1,2776,1207.6c-6.77-1.76-14.17-4.13-17.66-10.19-1.56-2.71-2.57-6.32-5.57-7.21-3.8-1.12-6.87,3.07-8.62,6.61l-1,2q-13.82-6.27-27.13-13.49a226.26,226.26,0,0,1-32.18-21.15c-10.24-8.13-18.47-18.67-29.47-25.83a10.42,10.42,0,0,0-3.76-1.71,4,4,0,0,0-3.8,1.15q3.61,9.35,7.87,18.45c.74,1.56,3.63,5.26.68,5-1.68-.15-3.42-1.81-4.86-2.57l-8.58-4.48c-7.08-3.7-14.09-7.46-21.64-10.16-1.29-.47-3.8-2-5.21-1.62-4.07,1.21,7.78,11.84,9.26,13.19a141,141,0,0,0,16.24,12.22c-1-.64-4.37-.9-5.62-1.29-2.54-.78-5-1.63-7.55-2.52-7.49-2.7-15.55-8.28-23.42-9.49a2.3,2.3,0,0,0-1.25.07c-1.09.48-.73,2-.16,3,6.84,12.15,19.78,19.79,32,26.46-2.47-1.35-5.92-2.12-8.67-2.84-5.44-1.43-11.27-3.09-16.72-5-4.69-1.65-11.17-6.17-16.21-6-1.35,0-2.89.87-3.15,2.21-.45,2.28,2.77,4.66,4.24,6.14q3.7,3.73,7.65,7.24a117.8,117.8,0,0,0,17,12.63c-2.87-.7-22.07-7.2-22.87-3.26a2.47,2.47,0,0,0,.36,1.64,14.68,14.68,0,0,0,4.7,4.71c13.76,10,30.08,17.37,46,23.81a642,642,0,0,1,67.19,32.42c-.75,1.53-1.47,3.19-1.14,4.85.47,2.29,2.73,3.68,4.78,4.8,27.17,14.84,55.43,28.57,81.84,44.71,22.63,13.83,44,29.9,66.93,43.59a225.22,225.22,0,0,0,28.18,14.52c8.52,5.5,20.51,7.28,29.57,8.74h0c29.45,4.77,53.43-5.31,73.22-22.34l.33-.27.2-.18a173.88,173.88,0,0,0,26.62-29.92,17.79,17.79,0,0,0,1.46-2c2.64-3.75,5.18-7.58,7.63-11.45,5-8,9.76-16.1,14.34-24.31,7.88-14.1,16.29-29.07,24.71-44.66.13.76.26,1.52.38,2.29q3.21,20,5.6,40c.79,6.58,1.83,17.33,7.78,21.71-11.74,24.65-20.72,56.1-26.85,71.88a921.18,921.18,0,0,0-40.37,134.6c-20.87,94.22-28.54,191.39-27.73,288.15.32,37.47,1.84,75.35-5.42,112-2.88,14.52-7.09,29.77-2.45,43.86,3.07,9.33,11.78,14.5,22.89,17.26a97.77,97.77,0,0,0,16.25,2.43c3.75,36.26,8.86,72.38,14.65,108.35,9.73,60.48,18.48,120.9,31.5,180.83,11.9,54.73,24.75,109.56,30.26,165.38a11.63,11.63,0,0,0-3.06,0,1.65,1.65,0,0,0-.87.3,1.77,1.77,0,0,0-.47,1.29c-3.8,42.56-76.57,46.67-106.83,53.22-4.28.93-8.93,2.08-11.61,5.55-3,3.91-3.3,8.45-2.09,12.92a10.39,10.39,0,0,0-1.77,4c-2.9,13.51,13,28.59,22.82,35,19.24,12.5,43.33,15.22,66.24,13.92s45.5-6.24,68.41-7.67c10.09-.63,20.22-.57,30.31-1.32,4.43-.33,8.93-.83,13-2.52a24.16,24.16,0,0,0,14.05-16.42,23.56,23.56,0,0,0,.6-6.21c1-4-.54-8.6-.63-13.83l-1.32-69.35a21.94,21.94,0,0,0-.91-7.09,7.43,7.43,0,0,0-4.86-4.89,8.67,8.67,0,0,0-3.92.12q-.14-9.58-.28-19.2c6.22,4.33,12.45,8.07,17.8,11.15l2.83,1.62c27.83,15.77,59.08,25.06,90.77,28.82a280.76,280.76,0,0,0,34.54,2c14.87-.07,28.4-3.9,35.08-18.4,3-6.57,2.66-11.86.12-16.06-.64-5.86-2.35-12-3.45-17.21a168.26,168.26,0,0,1-3.34-26.45c-.27-5.73,2.21-16.06-1.49-20.8a7.62,7.62,0,0,0-1.57-1.5c-.94-123.47.31-246.58,2.15-369.63,17.51-1.92,34.31-6.34,49-15.76,17.41-11.18,11.28-43.25,9.31-60.6-22.56-198.78-6.75-396.71-76.86-587.13,16.42-5,75.06-28.12,107.87-42.37a11.24,11.24,0,0,0,2.43-.31c5.78-1.44,14.11-6.59,19.22-10q2.79-1.85,5.49-3.87a100.18,100.18,0,0,0,7.79-6.45c.83-.76,1.64-1.53,2.44-2.32a79,79,0,0,0,6.7-7.48c.68-.87,1.34-1.76,2-2.66a60.86,60.86,0,0,0,6.47-11.51,55.18,55.18,0,0,0,2.2-6.26c.22-.79.42-1.59.61-2.39C3494.25,1224.44,3494.32,1224.12,3494.39,1223.79Zm-287.9,757.83c.43,2.71.85,5.42,1.29,8.13,9.76,60.67,18.54,121.27,31.6,181.39,13.2,60.75,27.58,121.6,31.86,183.78-4.2-2.19-8.23-4.42-13.26-5.44l-44.26-9a146.21,146.21,0,0,0-20.77-3.2c-6.06-.35-12.4-.22-18,2.06-1.88-113.84-3.08-228.49,6.45-341,.49-5.77,1.19-11.59,2.06-17.45Z"/></g><path class="cls-3" d="M2354.61,2611.81c18.9.33,39.77-1.51,56.14-12.36,16.58-11,22.37-29,25.89-48.41,4.29-23.72,6.4-48.8.07-72.37-6.14-22.88-23.91-47.74-47-53.19-27.68-6.53-59-8.5-87.3-9-16.12-.28-32.91,2.31-46.21,11.87-18.26,13.12-27.17,37-30.22,59.29a145.93,145.93,0,0,0-.27,36.47c1.67,14.41,6.43,25.76,12.78,38.26s7,41.1,23.63,42.62c17.27,1.58,34.55,3.16,51.88,4.26C2327.07,2610.08,2340.91,2611.57,2354.61,2611.81Z"/><path class="cls-40" d="M1405.68,2553.79c-3.41,2.64-19.3-2-23.46-2.83a193.34,193.34,0,0,1-23.49-6.08c-25.58-8.28-49.55-21.29-73.74-33.15l-78.73-38.62c-10.18-5-15.15-11.21-18.58-22.3-2.14-23.26,37-36.61,52.27-42.68q41.85-16.65,84.78-30.1c32-10.09,64.14-17.31,97.69-12.55,29.77,33.21,45.52,82.21,37.33,127-2,11.1-5.53,22.35-12.9,30.56a72.51,72.51,0,0,1-10,8.73C1428.26,2538.4,1414.3,2547.14,1405.68,2553.79Z"/><path class="cls-41" d="M1229.36,2411.9q3.71-1.49,7.48-2.75c3.15-1.05,11.27-4.93,14.45-3.84,3.37,1.15,2,7.23,1.14,10.2-2.69,8.8-5.23,17.71-6.22,26.9-1.22,11.33,0,22.72,1.7,34,.48,3.13,5.11,16,.13,17a5.75,5.75,0,0,1-3.29-.68,358.75,358.75,0,0,1-35.09-17.41c-9.88-5.6-20.78-11.4-22-24.59-1.35-14.84,12.8-23.22,23.23-29.59A127.56,127.56,0,0,1,1229.36,2411.9Z"/><path class="cls-42" d="M1388.3,2460.65a253.09,253.09,0,0,0,10.1,94.46L2299,2607.9a193.24,193.24,0,0,1-16.1-95.36l-889.6-50.79A14.82,14.82,0,0,1,1388.3,2460.65Z"/><path class="cls-43" d="M2314.54,2417.41l-899.45-52.73a252.47,252.47,0,0,0-25.87,86.38c-.28,2.38-.51,4.75-.72,7.11-.07.83-.13,1.65-.2,2.48a14.82,14.82,0,0,0,5,1.1l889.6,50.79q.26-3.06.6-6.13a189.57,189.57,0,0,1,33.67-88.44A8.55,8.55,0,0,0,2314.54,2417.41Z"/><g class="cls-44"><ellipse class="cls-45" cx="2394.87" cy="2524.25" rx="73.21" ry="40.83" transform="translate(-373.63 4632.01) rotate(-83.79)"/></g><path d="M3209.91,2423.7l2.82,1.62c27.84,15.77,59.08,25.06,90.78,28.83a280.64,280.64,0,0,0,34.54,1.94c14.87-.07,28.39-3.9,35.07-18.4,6.81-14.78-3.53-23.13-17.24-27.05-7.94-2.27-16.26-2.76-24.46-3.75-26-3.15-51-11.42-75.58-20.25-17-6.1-34.25-12.73-47.88-24.55-4.79-4.15-9.08-8.91-14.26-12.56s-11.58-6.16-17.82-5c-7.2,1.34-12.88,7.51-15.08,14.5C3151.82,2387.6,3188.11,2411.16,3209.91,2423.7Z"/><path class="cls-46" d="M3327.12,2396.09c4.17-.51,8.22-1.25,11.89-1.88,9.37-1.62,20.26-4.72,23.46-13.68,1.1-3.06,1.08-6.38,1.05-9.63-2.85-311.57,8.76-620.75,8.79-932.39,0-42-44.78-52.12-78-39-63.46,25-64.39,83.29-71,139.2-9.65,81.18-21.94,160.48-20.6,242.62,1.15,70.66,9.87,140.94,21.08,210.63,9.75,60.67,18.54,121.27,31.6,181.39,13.41,61.72,28,123.55,32.06,186.78.67,10.64,1.55,22.45,9.31,29.76S3316.26,2397.41,3327.12,2396.09Z"/><g class="cls-47"><path class="cls-45" d="M3360.42,2443.48c-5.71,1.59-11.83,1.16-17.76.66-31.24-2.66-62.71-7.17-92.38-17.63-28-9.86-76.73-30.56-72.1-67.8.71-5.72,3.48-11.33,8.16-14.68,6.58-4.71,14.83-5,22.62-4.58a146.21,146.21,0,0,1,20.77,3.2l44.26,9c7.35,1.5,12.57,5.57,19.3,8.35,8.85,3.66,18.11,3.68,27.58,2.53s18.54-3.56,27.66-6c5.08-1.34,12.31-4.68,16.44.6,3.7,4.74,1.22,15.07,1.48,20.8a169.31,169.31,0,0,0,3.35,26.45c2.81,13.5,9.75,32.63-8.11,38.67C3361.27,2443.23,3360.84,2443.36,3360.42,2443.48Z"/></g><path d="M3011.37,2547c19.25,12.5,43.33,15.22,66.25,13.92s45.5-6.24,68.41-7.67c10.09-.63,20.22-.57,30.31-1.32,4.43-.33,8.92-.83,13-2.52a23.73,23.73,0,0,0,8.95-37.42c-9-10.43-24.61-11.1-38.36-11l-99.67,1c-16.06.16-32.13.14-48.19.47-8.24.17-21.35-.7-23.55,9.55C2985.66,2525.52,3001.51,2540.6,3011.37,2547Z"/><path class="cls-14" d="M3271.65,1273.35c8.29,16.78.69,37.09-16.89,45.12l-50.2,22.92c-17.59,8-38.76.87-47-15.92L3066,1140.2l113.57-53.28Z"/><path d="M3189.35,1345.7c-13.57,0-26.57-7.3-32.74-19.78l-92-186.19L3180,1085.6l.43.88,92.13,186.42A33.25,33.25,0,0,1,3274,1299a35.35,35.35,0,0,1-18.87,20.37L3205,1342.3A37.5,37.5,0,0,1,3189.35,1345.7Zm-122-205L3158.4,1325c8.08,16.35,28.6,23.28,45.74,15.45l50.2-22.92a33.35,33.35,0,0,0,17.81-19.22,31.28,31.28,0,0,0-1.4-24.55l-91.69-185.55Z"/><path class="cls-14" d="M3190.05,1100.51l-121.79,51c-6.85,2.87-14.58.52-17.19-5.23l-7.28-16.09c-2.6-5.75.88-12.8,7.73-15.67l121.79-51c6.86-2.87,14.59-.52,17.19,5.23l7.28,16.09C3200.39,1090.59,3196.91,1097.64,3190.05,1100.51Z"/><path d="M3062.23,1153.74c-5.25,0-10.05-2.59-12.07-7l-7.28-16.09a11.2,11.2,0,0,1-.11-8.77,15.19,15.19,0,0,1,8.37-8.23l121.79-51c7.36-3.08,15.66-.51,18.48,5.75l7.29,16.09a11.21,11.21,0,0,1,.1,8.77,15.14,15.14,0,0,1-8.36,8.23l-121.79,51A16.7,16.7,0,0,1,3062.23,1153.74Zm117.14-90.46a14.79,14.79,0,0,0-5.67,1.16l-121.79,51a13.2,13.2,0,0,0-7.28,7.13,9.24,9.24,0,0,0,.07,7.21l7.29,16.09c2.38,5.27,9.51,7.39,15.89,4.72l121.79-51a13.2,13.2,0,0,0,7.27-7.12,9.15,9.15,0,0,0-.07-7.21l-7.28-16.1C3187.91,1065.44,3183.85,1063.28,3179.37,1063.28Z"/><path class="cls-14" d="M3291.69,1327.84l-106.92,45.31c-6,2.55-14-2.15-17.83-10.45l-10.61-23.23c-3.79-8.3-2-17.18,4-19.73l106.92-45.31c6-2.55,14,2.15,17.83,10.45l10.62,23.24C3299.53,1316.41,3297.71,1325.29,3291.69,1327.84Z"/><path d="M3181.29,1374.84c-5.73,0-12-4.58-15.26-11.72l-10.61-23.24c-2.32-5.08-2.71-10.69-1-15a10.46,10.46,0,0,1,5.6-6.07l106.92-45.31c6.53-2.77,15.11,2.15,19.13,11l10.61,23.23c2.33,5.08,2.71,10.69,1,15a10.41,10.41,0,0,1-5.6,6.06l-106.91,45.31A9.77,9.77,0,0,1,3181.29,1374.84Zm89.54-100.11a8.08,8.08,0,0,0-3.15.62l-106.92,45.32a8.45,8.45,0,0,0-4.51,4.94c-1.48,3.82-1.11,8.84,1,13.44l10.61,23.24c3.58,7.83,11,12.29,16.53,9.94l106.92-45.31a8.48,8.48,0,0,0,4.52-5c1.48-3.81,1.11-8.84-1-13.44l-10.62-23.23C3281.28,1278.88,3275.77,1274.73,3270.83,1274.73Z"/><path class="cls-14" d="M3304,1333.55l-121.63,51.36c-6.84,2.89-15.54-1.54-19.32-9.84l-10.6-23.24c-3.78-8.3-1.28-17.46,5.57-20.35l121.62-51.36c6.84-2.89,15.54,1.54,19.32,9.84l10.6,23.24C3313.38,1321.5,3310.87,1330.66,3304,1333.55Z"/><path d="M3178,1386.79c-6.19,0-12.62-4.35-15.79-11.31l-10.6-23.24a18.72,18.72,0,0,1-.74-14.43,12.68,12.68,0,0,1,6.83-7.25l121.62-51.36c7.35-3.11,16.61,1.53,20.63,10.34l10.59,23.25a18.7,18.7,0,0,1,.75,14.42,12.73,12.73,0,0,1-6.83,7.26l-121.63,51.36A12.43,12.43,0,0,1,3178,1386.79Zm106.19-106.56a10.51,10.51,0,0,0-4.09.81l-121.63,51.36a10.59,10.59,0,0,0-5.74,6.14,16.71,16.71,0,0,0,.7,12.87l10.6,23.24c3.57,7.84,11.66,12,18,9.34l121.63-51.36a10.63,10.63,0,0,0,5.75-6.14,16.72,16.72,0,0,0-.71-12.87l-10.59-23.25C3295.25,1284.15,3289.56,1280.23,3284.15,1280.23Z"/><path d="M3372.33,812.2a496.62,496.62,0,0,0-17.66-123.54c-9.7-35.22-24.54-77.86-55.91-99.06-32.36-21.87-73.94-26.63-111-15.52-35.43,10.61-71.31,31.53-81.56,65.28-23.58,77.6,74.65,130.27,107.3,189.88,14.29,26.09,24.91,55.53,36,83,7.27,18.1,24.34,29.94,39.58,42.11,2.46,2,5,4.07,6.3,6.93,1.67,3.62,1.17,7.83.67,11.8a473,473,0,0,0,10.75,173.64c10.22-83.37,45-161.91,58.91-244.75A494.58,494.58,0,0,0,3372.33,812.2Z"/><path class="cls-48" d="M3245.06,991.19a55.13,55.13,0,0,0,23.19-14.31c7.19-7.34,10.14-12.29,9.68-22.47a290,290,0,0,0-5.83-45.76c-6.4-31-25-55.91-37.07-84.66-7.92-18.85-12.67-38.74-18.65-58.22-5.47-17.83-12.79-29.44-6.64-47.46,3-8.71.62-19-8.54-22.75-10.13-4.16-20.5,3.91-26.62,11.36-2.76,3.35-6.24,6.61-10.56,7a14.41,14.41,0,0,1-7.82-2c-21.91-11.67-29.11-42.21-38.38-63.1-1.13-2.55-4-11.61-6.79-12.47-3.24-1-5.92,4.58-6.9,6.69a110.12,110.12,0,0,0-5,14c-5,16.08-6.68,32.94-8.61,49.59-4,34.3-2.54,81,38.84,94.91,13.52,4.53,23,11,27.9,24.75,4.31,12.06,4.47,25,4.58,37.75q.36,40.25.73,80.5c.07,7.51.19,15.27,3.44,22.13,5,10.59,16.52,17.09,28,21.2C3210.27,993.73,3228.5,996.12,3245.06,991.19Z"/><path class="cls-49" d="M3415.13,1034.54c6.06,10.35,12,20.56,18,30.37,26.72,44,92.56,107.29,76.47,164.43-4.83,17.16-18.22,30.7-33.07,40.55-12.3,8.16-134.12,56.53-133.92,53.51.73-11-2.42-21.75-4-32.62-5.62-38.44,8.29-76.67,14.73-115a301.6,301.6,0,0,0,3.37-71.4c-.8-11.06-1-24.28-4.65-34.82-3.43-9.88-8.95-19.23-12.1-29.48-5.47-17.87-4.45-37.76-19-51.71-8.53-8.18-18.24-15.93-26.13-24.69-6.72-7.45-2.18-15.92,5.84-20.87,7.76-4.8,17.25-6.32,26.34-5.51,10.5.92,22.7,3.78,30,11.64a275.27,275.27,0,0,1,21.28,27C3391.64,994.74,3403.45,1014.62,3415.13,1034.54Z"/><path class="cls-8" d="M3470.28,1135.37c4.09-2.18,8.12-3.3,11.2-2,3.42,1.44,7.37,11.16,9.26,14.34,3.14,5.29,6.11,10.69,8.8,16.22,9.77,20.15,16.27,43.21,10,65.42-4.83,17.16-18.22,30.7-33.07,40.55-5.11,3.39-13.44,8.54-19.22,10-7.85,2-16.15-5.59-20.48-11.56-5-6.85-7.6-15.18-9-23.54-3.69-22.56,1.14-45.81,9.47-67.1,4.07-10.38,9.06-20.59,16.46-28.93C3456.67,1145.44,3463.55,1139,3470.28,1135.37Z"/><path class="cls-46" d="M3211.59,761.93q-1.46-3.76-2.9-7.53c-1.42-3.69-2.85-7.43-3.18-11.32a14.17,14.17,0,0,0-3.16,5.33,125.67,125.67,0,0,1-22,34.76,135.22,135.22,0,0,1-15.16,14.61c-4.93,4.06-10.76,9.23-16.86,11.68,5.13,5.4,9.73,10.09,11.06,17.47.37,2.08.92,4.71,2.91,5.12,1.72.36,3.15-1.31,4.27-2.72,3.36-4.26,7.49-7.75,11.59-11.22L3194.88,804c3.84-3.25,7.74-6.53,12.24-8.63a20.62,20.62,0,0,1,6.79-1.84c2-.18,4.41.52,6.31.1,4.55-1,.86-7-.18-9.72Q3215.81,772.92,3211.59,761.93Z"/><path d="M3089.85,669.15a2.7,2.7,0,0,0-.63,1.39c-.48,3.13,3,3.24,5.33,3.29a37.3,37.3,0,0,1,7.66,1c2.13.5,4.45,1.88,6.6,2.08,3.26.29,3.87-1.84,2.1-3.94-2-2.34-5.46-4.06-8.42-4.94a17.68,17.68,0,0,0-6.43-.68C3094.19,667.49,3091.17,667.6,3089.85,669.15Z"/><path d="M3109.39,677.92l-.67,0a15.1,15.1,0,0,1-4.13-1.2,21.4,21.4,0,0,0-2.61-.9,36,36,0,0,0-7.46-1c-1.72,0-4.33-.1-5.62-1.63a3.39,3.39,0,0,1-.67-2.81,3.73,3.73,0,0,1,.86-1.89c1.5-1.75,4.38-2,6.48-2.13l.41,0a18.75,18.75,0,0,1,6.79.72,19.14,19.14,0,0,1,8.91,5.25c1.17,1.39,1.51,2.91.92,4.05C3112.28,677,3111.45,677.92,3109.39,677.92Zm-12-9.63c-.43,0-.86,0-1.29.05l-.42,0c-1.65.12-4.15.31-5.12,1.43h0a1.72,1.72,0,0,0-.39.89,1.38,1.38,0,0,0,.22,1.22c.71.85,2.86.9,4.14.93a38.72,38.72,0,0,1,7.87,1,22.28,22.28,0,0,1,2.88,1,13.91,13.91,0,0,0,3.58,1.07c1.19.11,1.77-.17,1.92-.46s0-1-.67-1.84c-1.88-2.23-5.34-3.85-8-4.63A17,17,0,0,0,3097.43,668.29Z"/><ellipse class="cls-46" cx="3129.86" cy="717.92" rx="16.99" ry="17.99" transform="translate(2316.03 3824.23) rotate(-88.24)"/><path class="cls-46" d="M3082.63,726.64c-2.79,4.93,3.37,7.28,7.29,8.85l1.47-21.69C3088.77,718.27,3085.19,722.12,3082.63,726.64Z"/><path class="cls-48" d="M3156.5,2491.41c4.16-.51,8.2-1.24,11.85-1.87,9.35-1.62,20.2-4.71,23.39-13.64,1.09-3.05,1.07-6.36,1.05-9.6-1.41-154.25-8.43-312,4.6-465.81,3.35-39.64,16.51-81.8,27.56-120.14,21-72.88,52.36-142.33,76.55-214.21s41.3-148,32.34-223.32c-2.84-23.86-8.57-48.07-22.32-67.78-18.11-26-49.47-41.63-81.13-42.49s-63.06,12.5-85.88,34.46c-60.52,58.22-68.83,144.1-83.23,222.32-17.57,95.37-30.38,192.08-28.8,289.24,1.15,70.44,9.84,140.49,21,210,9.73,60.48,18.49,120.9,31.51,180.83,13.37,61.52,27.95,123.16,31.95,186.18.68,10.61,1.55,22.38,9.29,29.67S3145.68,2492.73,3156.5,2491.41Z"/><path class="cls-41" d="M3022.6,1977.75c22.66,5.64,55.3,1.25,70.46,1.76l222.39,7.39c34.12,1.14,70.61,1.66,99.06-16.61,17.42-11.19,11.29-43.26,9.32-60.6-22.78-200.78-6.41-400.68-79-592.86-10.72-28.39-19.65-38.28-49-39.51-26.09-1.09-52.08,3.78-78.13,2.33-24.41-1.36-70.33-13.84-91.48-1.58-23.87,13.84-40.84,78.7-50.6,103.83a922.82,922.82,0,0,0-40.38,134.6c-20.86,94.22-28.54,191.39-27.72,288.15.32,37.47,1.84,75.35-5.42,112-2.88,14.52-7.09,29.77-2.45,43.86C3002.78,1969.82,3011.49,1975,3022.6,1977.75Z"/><g class="cls-50"><path d="M3204.4,1929.87q1.89,6.95,4.31,13.75c19.25,53.78,55.94,41.59,106.74,43.28,34.12,1.14,70.61,1.66,99.06-16.61,17.42-11.19,11.29-43.26,9.32-60.6-22.78-200.78-6.41-400.68-79-592.86-10.72-28.39-19.65-38.28-49-39.51-30.49-1.28-100.14-14.41-100.18,25.63q-.26,260.54-.52,521.05C3195.15,1859,3195.13,1895.7,3204.4,1929.87Z"/></g><path class="cls-46" d="M3094.36,745.52l8.81-.22a4.35,4.35,0,0,1,2.8.57c1.88,1.45,1.09,4.32-.8,5.34-2.26,1.23-6.05,1.26-8.59,1.07a7.25,7.25,0,0,1-5.16-2.51c-.76-1-1.86-3.43-.5-4.34.62-.41,1.26-.15,2-.06A10.17,10.17,0,0,0,3094.36,745.52Z"/><path d="M3087.5,701.4a5.2,5.2,0,0,0,1.88,3.8,6.16,6.16,0,0,0,8,.24c3.74-3.26,2.5-10-3.33-9.67C3090.5,696,3087.51,698.52,3087.5,701.4Z"/><path d="M3093.57,707.81a7.17,7.17,0,0,1-4.88-1.88,6.24,6.24,0,0,1-2.19-4.53c0-3.4,3.37-6.37,7.48-6.62a5.8,5.8,0,0,1,6,3.51,7.1,7.1,0,0,1-2,7.91A6.79,6.79,0,0,1,3093.57,707.81Zm.92-11h-.39c-3,.19-5.59,2.31-5.6,4.63h0a4.22,4.22,0,0,0,1.56,3.07,5,5,0,0,0,8.11-5.42A3.68,3.68,0,0,0,3094.49,696.76Z"/><path d="M3192.43,702.48a14.15,14.15,0,0,0-3.92,5.82,17.35,17.35,0,0,0-1.17,6.8,10.75,10.75,0,0,0,2,6.22,8.46,8.46,0,0,0,2.42,2,6.31,6.31,0,0,0,3,.65c2,0,4.15-1.24,4.61-3.08a4.32,4.32,0,0,0-.33-2.9,10.15,10.15,0,0,0-1.87-2.7,11,11,0,0,0-5.83-3.25,4.19,4.19,0,0,0-3.15.67c-.88.67-1,2-1.15,3.16a10.16,10.16,0,0,1,0-1.83,3.07,3.07,0,0,1,.78-1.74,4.84,4.84,0,0,1,3.61-1.24,11.47,11.47,0,0,1,6.83,3.11,10.54,10.54,0,0,1,2.38,3.08,6.15,6.15,0,0,1,.58,4.1,5.72,5.72,0,0,1-2.49,3.41,7.46,7.46,0,0,1-3.91,1.21,8.31,8.31,0,0,1-3.95-.91,10,10,0,0,1-3.05-2.61,12,12,0,0,1-2-7.36,17.12,17.12,0,0,1,1.82-7.2A13,13,0,0,1,3192.43,702.48Z"/><path class="cls-51" d="M3089.15,1248.29q-5.18-32.14-12.43-63.91c-3.73-16.32-7.48-32.76-12.85-48.62-5.23-15.48-12-30.57-14.9-46.73-5.37-29.61,2.75-60.4,16.83-87,10.74-20.31,24.85-38.45,39.44-56.08,4.8-5.79,9.89-15,16.13-19.31,6.66-4.59,15.46-3.45,20.71-10.71,12.34-17.07-7.9-49.43,26.33-42,17.62,3.85,35.84,3.73,53.88,3.59,12.65-.1,25.44-.21,37.73-3.2,3.55-.86,7.06-2,10.71-2.23,14.39-1,13.5,11.2,17.39,21,6,15.11,5.72,15.18,19.46,22.09,23.31,11.72,47.81,27.56,60.77,51.07,14.75,26.76,9.28,68.2,9,98.3-.75,78.46-11.13,156.4-21.47,234-2.85,21.39-15,21.24-33.09,20.53l-121.29-4.73c-20.36-.79-40.74-2-61.11-2.27-10.29-.15-28.82,4-37.52-1.84-6.26-4.22-7.31-15.28-8.11-22Q3092.35,1268.25,3089.15,1248.29Z"/><path class="cls-48" d="M2935,1242v0c-6.1,15.1-23,13.16-36.45,8.69q-8.43-2.82-16.9-5.55c-25.43-8.26-50.95-16.26-76.06-25.38s-50.12-19.44-73.58-32.24a227,227,0,0,1-32.17-21.14c-10.24-8.13-18.47-18.68-29.48-25.84a10.27,10.27,0,0,0-3.76-1.71,4,4,0,0,0-3.79,1.15q3.61,9.35,7.87,18.45c.73,1.57,3.63,5.26.68,5-1.68-.15-3.43-1.81-4.86-2.56l-8.58-4.49c-7.08-3.69-14.1-7.46-21.64-10.16-1.29-.46-3.8-2-5.22-1.62-4.06,1.21,7.79,11.84,9.27,13.19a139,139,0,0,0,16.24,12.22c-.95-.64-4.37-.9-5.62-1.29q-3.81-1.17-7.55-2.52c-7.49-2.69-15.55-8.28-23.43-9.49a2.27,2.27,0,0,0-1.24.07c-1.09.48-.74,2-.17,3,6.85,12.15,19.79,19.79,32,26.46-2.48-1.35-5.92-2.11-8.68-2.84-5.44-1.43-11.26-3.09-16.71-5-4.69-1.65-11.17-6.18-16.22-6a3.26,3.26,0,0,0-3.15,2.21c-.45,2.28,2.77,4.66,4.25,6.14,2.47,2.49,5,4.91,7.65,7.24a117,117,0,0,0,17,12.63c-2.86-.7-22.07-7.2-22.87-3.26a2.54,2.54,0,0,0,.37,1.64,14.71,14.71,0,0,0,4.7,4.72c13.76,10,30.08,17.36,46,23.8,63.81,25.84,120.75,64.89,180.56,97.75,14.65,8,29.41,15.91,44.36,23.44,20.93,10.55,43.6,23.41,66.76,29,35.36,8.47,52.45-26.69,66.27-50.57,32.27-55.74,60.41-113.36,88.5-171.06,8-16.36,16-33,18.68-50.86-11.6-5-23.88-8.94-35.28-14.27-7.84-3.66-13.73-9.45-21.54-13.31-20.05-9.89-41.88-17.17-63.77-22.37a7.18,7.18,0,0,0-4.25-.12,6.39,6.39,0,0,0-2.89,3.11c-5.78,10.31-9.77,21.42-13.48,32.55-11.21,33.74-19.93,68.18-31.66,101.77-5.78,16.51-13.71,32.18-19.79,48.51C2935.25,1241.38,2935.14,1241.68,2935,1242Z"/><path class="cls-52" d="M2980.58,1095.93q-17.45,41.28-34.95,82.52c-7.22,17.08-15.77,35.59-32.55,43.5-12,5.66-26,4.69-39.15,3.17A599.62,599.62,0,0,1,2792,1209.8c-6.76-1.76-14.16-4.14-17.65-10.19-1.57-2.72-2.58-6.33-5.58-7.21-3.79-1.12-6.87,3.06-8.62,6.61l-29.95,60.77c-.78,1.58-1.58,3.31-1.23,5,.46,2.29,2.73,3.69,4.78,4.81,27.17,14.84,55.43,28.56,81.84,44.7,22.63,13.83,44,29.9,66.93,43.59,17.92,10.71,37.13,19.93,57.74,23.26,50.33,8.15,84.67-27,109.47-66.21,5-8,9.75-16.1,14.34-24.31,43-77,102.13-179.72,90.52-271.36-3.86-30.49-21.84-85.51-61.89-82-42.4,3.67-64,43.69-78.6,78.75Q2997.48,1056,2980.58,1095.93Z"/><g class="cls-47"><path class="cls-45" d="M3198.07,2533.58c-5.3,2.84-12.16,3.1-17.94,3.3-29.42,1-58.44,6.44-87.91,8.22-21.67,1.32-43.78.48-64.51-6-9.11-2.85-18-6.85-25.22-13.14-7.7-6.74-17.79-20.88-10.07-30.9,2.67-3.48,7.32-4.63,11.61-5.56,30.25-6.55,103-10.66,106.83-53.21a1.82,1.82,0,0,1,.46-1.3,1.69,1.69,0,0,1,.88-.3c6.18-.8,13.19,4.21,19.45,5.31a78.39,78.39,0,0,0,22.94.32c12.37-1.5,24.36-5.13,36.42-8.24a10.92,10.92,0,0,1,5.3-.46,7.47,7.47,0,0,1,4.86,4.89,22.25,22.25,0,0,1,.91,7.09q.66,34.68,1.31,69.35c.16,8.11,3.79,14.74-4,19.85C3199,2533.09,3198.51,2533.34,3198.07,2533.58Z"/></g><path class="cls-53" d="M2940.26,1381.18c27.22,4.41,53-4.81,73.54-22.61,10.36-9,18.18-19.53,26.79-30,4-4.85,4.4-9.27-.29-13.91-29.14-28.82-80.7-22.51-112.45-1.66-14,9.22-32.11,28.56-26.84,47C2905.57,1376,2926.38,1378.94,2940.26,1381.18Z"/><path d="M3289.7,685.09c14.46-4.28,33.61-4.27,45.52,2.5,13.42,7.64,20.5,23.22,25.12,37.25,21.71,65.93,17.14,136.78,23.44,205,6.12,66.31,14.75,134,32.81,198.17,8.15,29,28.5,70.94,65.6,54.64-21.08,12.16-45.13,19.32-67.88,27.47-43.65,15.64-94.31,13.16-117.38-32.86-9.11-18.16-12.56-38.55-15.9-58.6q-25.47-153-50.71-306c-4.35-26.39-10.29-58.42,4.44-83.11,10.63-17.82,26.72-29.76,44.35-40.07A48.51,48.51,0,0,1,3289.7,685.09Z"/></g></svg>